<svg xmlns="http://www.w3.org/2000/svg" width="30" height="30" viewBox="0 0 30 30"><path fill="#FFC0CB" d="M11.222 26.312c-.035-.052-3.605-5.17-7.68-6.523l-1.349-.449.877-1.117c.019-.022 1.885-2.404 2.947-4.157l.471-.776.818.395c.097.047 2.103 1.042 4.311 4.211 1.649-3.674 5.713-12.04 9.725-14.956l.855-.622.574.892c.012.018 1.229 1.886 3.729 4l1.307 1.104-1.604.598c-.043.017-5.566 2.368-13.271 17.297l-.766 1.479-.944-1.376z"/><path fill="none" d="M7.024 15.729a53.643 53.643 0 0 1-1.728 2.435c2.812 1.372 5.182 3.932 6.447 5.481C17.387 13.09 21.882 9.025 24.018 7.553a24.04 24.04 0 0 1-2.412-2.611c-4.408 4.055-8.99 15.091-9.039 15.208l-.927-.375-.866.5c-1.455-2.523-2.906-3.892-3.75-4.546z"/><path d="M30.262 7.64l-2.613-2.209c-2.228-1.883-3.328-3.541-3.334-3.55L23.17.093a1.002 1.002 0 0 0-1.432-.27l-1.717 1.249c-3.43 2.493-6.702 8.116-9.022 12.857-1.519-1.547-2.707-2.169-2.968-2.295l-1.636-.79a1 1 0 0 0-1.29.381l-.942 1.553c-.899 1.482-2.522 3.596-2.811 3.959l-1.755 2.236a.997.997 0 0 0 .471 1.565l2.697.896c2.838.943 5.838 4.569 6.666 5.767l1.895 2.735a1 1 0 0 0 1.71-.109l1.528-2.956C21.688 13.076 26.803 10.52 26.793 10.52l3.172-1.179c.333-.124.575-.415.637-.765.06-.35-.069-.707-.34-.936zm-3.819 1.942c-.269.127-5.487 2.731-12.769 16.832l-1.528 2.956-1.895-2.736c-.94-1.357-4.061-5.109-7.172-6.146l-2.697-.896 1.755-2.235c.02-.023 1.847-2.355 2.88-4.059l.942-1.553 1.636.79c.226.109 1.786.914 3.66 3.172 1.975-4.206 5.616-11.108 9.354-13.826L22.327.632l1.144 1.787c.012.017 1.164 1.773 3.532 3.775l2.613 2.209-3.173 1.179z"/><path d="M23.471 2.419L22.327.632l-1.718 1.249c-3.737 2.718-7.378 9.62-9.354 13.826-1.874-2.258-3.434-3.063-3.66-3.172l-1.636-.79-.942 1.553c-1.033 1.703-2.86 4.035-2.879 4.057L.383 19.591l2.697.896c3.111 1.035 6.232 4.787 7.172 6.146l1.895 2.736 1.528-2.956c7.28-14.101 12.5-16.705 12.77-16.832l3.172-1.179-2.613-2.209c-2.369-2.001-3.524-3.757-3.533-3.774zM11.899 25.498s-3.737-5.427-8.188-6.906c0 0 1.908-2.431 3.016-4.256 0 0 2.461 1.188 4.912 5.438-.001 0 5.227-12.699 10.146-16.276 0 0 1.261 1.971 3.926 4.225.001 0-5.736 2.134-13.812 17.775z"/></svg>