<?xml version="1.0" encoding="utf-8"?>
<!-- Generator: Adobe Illustrator 16.0.0, SVG Export Plug-In . SVG Version: 6.00 Build 0)  -->
<!DOCTYPE svg PUBLIC "-//W3C//DTD SVG 1.1//EN" "http://www.w3.org/Graphics/SVG/1.1/DTD/svg11.dtd">
<svg version="1.1" id="Layer_1" xmlns="http://www.w3.org/2000/svg" xmlns:xlink="http://www.w3.org/1999/xlink" x="0px" y="0px"
	 width="30px" height="28px" viewBox="0 0 30 28" enable-background="new 0 0 30 28" xml:space="preserve">
<path fill="#FFC0CB" d="M11.221,25.312c-0.035-0.051-3.605-5.17-7.679-6.523l-1.349-0.449l0.877-1.117
	c0.019-0.023,1.885-2.405,2.947-4.157l0.471-0.777l0.818,0.395c0.097,0.047,2.103,1.042,4.311,4.211
	c1.649-3.674,5.713-12.04,9.725-14.956l0.855-0.622l0.574,0.891C22.783,2.226,24,4.094,26.5,6.208l1.307,1.104l-1.604,0.597
	c-0.043,0.017-5.566,2.369-13.272,17.297l-0.765,1.479L11.221,25.312z"/>
<g>
	<path fill="none" d="M7.024,14.729c-0.579,0.874-1.231,1.77-1.728,2.434c2.812,1.372,5.182,3.932,6.447,5.481
		C17.387,12.089,21.882,8.024,24.018,6.552c-1.109-1.042-1.908-1.97-2.413-2.611c-4.408,4.055-8.99,15.091-9.038,15.208
		l-0.927-0.375l-0.866,0.499C9.319,16.751,7.868,15.382,7.024,14.729z"/>
	<path d="M30.262,6.639l-2.613-2.209c-2.228-1.883-3.329-3.541-3.335-3.55L23.17-0.908c-0.149-0.232-0.387-0.393-0.657-0.444
		c-0.062-0.011-0.124-0.017-0.186-0.017c-0.21,0-0.416,0.066-0.588,0.191l-1.717,1.249c-3.43,2.493-6.702,8.116-9.023,12.857
		c-1.519-1.547-2.707-2.169-2.968-2.295l-1.636-0.79c-0.14-0.067-0.288-0.1-0.435-0.1c-0.339,0-0.668,0.173-0.855,0.481
		l-0.942,1.553c-0.899,1.482-2.522,3.596-2.811,3.959l-1.755,2.236c-0.201,0.256-0.265,0.594-0.171,0.905s0.333,0.559,0.642,0.661
		l2.697,0.896c2.838,0.943,5.838,4.569,6.666,5.766l1.895,2.736c0.188,0.271,0.495,0.431,0.822,0.431
		c0.021,0,0.043-0.001,0.064-0.002c0.35-0.022,0.663-0.228,0.824-0.539l1.528-2.956C21.688,12.075,26.803,9.519,26.793,9.519
		l3.172-1.179c0.333-0.124,0.575-0.415,0.637-0.765C30.662,7.225,30.533,6.868,30.262,6.639z M26.444,8.581
		c-0.269,0.127-5.488,2.731-12.769,16.832l-1.528,2.956l-1.895-2.736c-0.94-1.358-4.061-5.11-7.172-6.146l-2.697-0.896l1.755-2.236
		C2.158,16.332,3.985,14,5.018,12.297l0.942-1.553l1.636,0.79c0.226,0.109,1.786,0.914,3.66,3.172
		C13.231,10.5,16.872,3.598,20.61,0.88l1.717-1.249l1.144,1.787c0.011,0.017,1.164,1.773,3.532,3.775l2.613,2.209L26.444,8.581z"/>
	<path d="M23.471,1.418l-1.144-1.787L20.61,0.88c-3.738,2.718-7.379,9.62-9.354,13.826c-1.874-2.258-3.434-3.063-3.66-3.172
		l-1.636-0.79l-0.942,1.553C3.985,14,2.158,16.332,2.139,16.354l-1.755,2.236l2.697,0.896c3.111,1.035,6.232,4.787,7.172,6.146
		l1.895,2.736l1.528-2.956c7.28-14.101,12.5-16.705,12.769-16.832l3.172-1.179l-2.613-2.209C24.635,3.191,23.481,1.435,23.471,1.418
		z M11.899,24.497c0,0-3.737-5.426-8.188-6.906c0,0,1.908-2.431,3.016-4.256c0,0,2.461,1.188,4.912,5.439
		c-0.001,0,5.227-12.7,10.146-16.277c0,0,1.261,1.971,3.926,4.225C25.712,6.722,19.974,8.856,11.899,24.497z"/>
</g>
</svg>
