<svg xmlns="http://www.w3.org/2000/svg" width="28" height="28" viewBox="5.5 1 28 28"><path fill="#FFC0CB" d="M15.864 26.067c-.036-.051-3.606-5.17-7.679-6.524l-1.349-.449.877-1.117c.019-.024 1.885-2.406 2.947-4.158l.471-.777.818.395c.097.047 2.103 1.042 4.311 4.211 1.649-3.674 5.713-12.04 9.725-14.956l.855-.622.574.891c.012.019 1.229 1.887 3.729 4.001l1.307 1.104-1.604.597c-.043.017-5.566 2.369-13.273 17.297l-.765 1.48-.944-1.373z"/><path d="M26.574 3.5s1.261 1.971 3.926 4.225c0 0-5.738 2.134-13.813 17.775 0 0-3.737-5.426-8.187-6.906 0 0 1.908-2.431 3.016-4.256 0 0 2.461 1.187 4.912 5.44-.001-.001 5.226-12.701 10.146-16.278m.541-2.866l-1.717 1.249c-3.738 2.718-7.379 9.62-9.354 13.826-1.874-2.258-3.434-3.063-3.66-3.172l-1.636-.79-.942 1.553c-1.033 1.703-2.86 4.035-2.879 4.058l-1.755 2.236 2.697.896c3.111 1.035 6.232 4.787 7.172 6.146l1.895 2.736 1.528-2.956c7.28-14.101 12.5-16.705 12.769-16.832l3.171-1.179-2.613-2.209c-2.368-2.002-3.521-3.758-3.532-3.775L27.115.634z"/></svg>