<?xml version="1.0" encoding="UTF-8" standalone="no"?>
<svg
   xmlns:dc="http://purl.org/dc/elements/1.1/"
   xmlns:cc="http://creativecommons.org/ns#"
   xmlns:rdf="http://www.w3.org/1999/02/22-rdf-syntax-ns#"
   xmlns:svg="http://www.w3.org/2000/svg"
   xmlns="http://www.w3.org/2000/svg"
   viewBox="0 0 638.75 228.75"
   height="228.75"
   width="638.75"
   xml:space="preserve"
   version="1.1"
   id="svg2"><metadata
     id="metadata8"><rdf:RDF><cc:Work
         rdf:about=""><dc:format>image/svg+xml</dc:format><dc:type
           rdf:resource="http://purl.org/dc/dcmitype/StillImage" /></cc:Work></rdf:RDF></metadata><defs
     id="defs6"><clipPath
       id="clipPath18"
       clipPathUnits="userSpaceOnUse"><path
         id="path20"
         d="M 0,0 511,0 511,183 0,183 0,0 Z" /></clipPath></defs><g
     transform="matrix(1.25,0,0,-1.25,0,228.75)"
     id="g10"><g
       id="g12" /><g
       id="g14"><g
         clip-path="url(#clipPath18)"
         id="g16"><path
           id="path22"
           style="fill:#231f20;fill-opacity:1;fill-rule:nonzero;stroke:none"
           d="m 163.18,142.892 30.597,0 0,-7.258 -22.35,0 0,-16.824 21.361,0 0,-7.257 -21.361,0 0,-26.226 -8.247,0 0,57.565" /><path
           id="path24"
           style="fill:#231f20;fill-opacity:1;fill-rule:nonzero;stroke:none"
           d="m 209.447,142.892 8.247,0 0,-24.082 27.546,0 0,24.082 8.247,0 0,-57.565 -8.247,0 0,26.226 -27.546,0 0,-26.226 -8.247,0 0,57.565" /><path
           id="path26"
           style="fill:#231f20;fill-opacity:1;fill-rule:nonzero;stroke:none"
           d="m 272.619,142.892 8.247,0 0,-50.308 24.082,0 0,-7.257 -32.329,0 0,57.565" /><path
           id="path28"
           style="fill:#231f20;fill-opacity:1;fill-rule:nonzero;stroke:none"
           d="m 325.813,136.13 8.661,0 c 4.783,0 10.638,-1.732 10.638,-8.577 0,-8.495 -6.762,-9.237 -14.762,-9.237 l -4.537,0 0,17.814 z m -8.247,-50.803 15.34,0 c 11.711,0 21.938,2.969 21.938,15.34 0,8.082 -5.526,13.195 -13.361,13.855 l 0,0.165 c 7.258,1.814 11.876,5.773 11.876,13.69 0,10.639 -8.247,14.515 -20.205,14.515 l -15.588,0 0,-57.565 z m 8.247,26.226 5.362,0 c 7.092,0 14.927,-1.237 14.927,-10.144 0,-7.752 -6.68,-9.319 -14.103,-9.319 l -6.186,0 0,19.463" /><path
           id="path30"
           style="fill:#231f20;fill-opacity:1;fill-rule:nonzero;stroke:none"
           d="m 370.101,117.821 c 3.133,2.639 7.835,4.288 12.206,4.288 7.752,0 10.391,-3.711 10.391,-10.969 -3.052,0.165 -5.196,0.165 -8.247,0.165 -8,0 -19.546,-3.298 -19.546,-13.855 0,-9.154 6.35,-13.113 15.422,-13.113 7.093,0 11.216,3.877 13.03,6.433 l 0.165,0 0,-5.443 7.258,0 c -0.165,1.237 -0.33,3.464 -0.33,8.247 l 0,17.402 c 0,11.463 -4.865,17.401 -16.906,17.401 -5.361,0 -9.98,-1.649 -13.856,-3.958 l 0.413,-6.598 z m 22.597,-16.164 c 0,-6.269 -4.041,-11.052 -11.711,-11.052 -3.547,0 -7.835,2.392 -7.835,6.845 0,7.423 10.392,8.083 14.598,8.083 1.649,0 3.299,-0.166 4.948,-0.166 l 0,-3.71" /><path
           id="path32"
           style="fill:#231f20;fill-opacity:1;fill-rule:nonzero;stroke:none"
           d="m 416.038,127.387 7.505,0 0,-6.68 0.165,0 c 2.309,4.784 7.917,7.67 13.772,7.67 10.886,0 15.752,-6.762 15.752,-18.061 l 0,-24.989 -7.752,0 0,21.772 c 0,9.815 -2.144,14.598 -8.907,15.01 -8.824,0 -12.783,-7.092 -12.783,-17.319 l 0,-19.463 -7.752,0 0,42.06" /><path
           id="path34"
           style="fill:#231f20;fill-opacity:1;fill-rule:nonzero;stroke:none"
           d="m 469.727,147.181 7.751,0 0,-36.865 16.908,17.071 10.555,0 -19.545,-18.638 22.02,-23.422 -11.134,0 -18.804,21.607 0,-21.607 -7.751,0 0,61.854" /><path
           id="path36"
           style="fill:#006166;fill-opacity:1;fill-rule:nonzero;stroke:none"
           d="M 55.593,118.99 111.192,85.317 87.804,85.335 55.87,104.328 55.568,104.574 23.383,85.335 0,85.317 55.593,118.99" /><path
           id="path38"
           style="fill:#006166;fill-opacity:1;fill-rule:nonzero;stroke:none"
           d="m 143.556,148.477 -55.6,33.677 -55.596,-33.677 23.386,0.028 32.182,19.239 0.305,-0.252 31.93,-18.987 0.156,0 0,-63.213 13.907,0 0,63.203 9.33,-0.018" /><path
           id="path40"
           style="fill:#231f20;fill-opacity:1;fill-rule:nonzero;stroke:none"
           d="m 36.268,47.998 c -3.629,1.567 -7.67,2.474 -11.711,2.474 -3.959,0 -9.072,-1.732 -9.072,-8 0,-9.979 25.236,-5.773 25.236,-25.071 C 40.721,4.783 30.742,0 19.114,0 12.846,0 10.042,0.824 4.351,2.226 l 1.072,10.392 c 3.959,-2.145 8.495,-3.547 13.031,-3.547 4.371,0 10.226,2.227 10.226,7.423 0,10.969 -25.236,6.433 -25.236,25.483 0,12.867 9.979,17.567 20.123,17.567 4.949,0 9.567,-0.659 13.773,-2.062 l -1.072,-9.484" /><path
           id="path42"
           style="fill:#231f20;fill-opacity:1;fill-rule:nonzero;stroke:none"
           d="m 52.433,31.751 c 3.711,2.804 8.412,4.619 13.112,4.619 6.516,0 9.567,-2.31 9.567,-9.155 l -6.103,0 c -4.618,0 -10.061,-0.413 -14.267,-2.474 C 50.536,22.679 47.484,18.968 47.484,12.618 47.484,4.535 54.824,0 62.329,0 67.36,0 72.885,2.638 75.442,7.34 l 0.165,0 c 0.082,-1.32 0.082,-4.124 0.495,-6.351 l 9.732,0 c -0.248,3.299 -0.413,6.268 -0.495,9.484 -0.083,3.134 -0.165,6.351 -0.165,10.639 l 0,5.443 c 0,12.536 -5.361,17.897 -18.309,17.897 -4.701,0 -10.474,-1.237 -14.762,-3.217 l 0.33,-9.484 z M 58.04,13.277 c 0,6.516 7.34,7.34 12.289,7.34 l 4.783,0 c 0,-3.299 -0.495,-6.35 -2.309,-8.741 -1.732,-2.31 -4.371,-3.794 -7.752,-3.794 -3.959,0 -7.011,1.566 -7.011,5.195" /><path
           id="path44"
           style="fill:#231f20;fill-opacity:1;fill-rule:nonzero;stroke:none"
           d="m 96.06,43.462 10.474,0 0,-5.773 0.165,0 c 3.464,4.865 8.165,6.763 13.938,6.763 10.061,0 14.432,-7.093 14.432,-16.659 l 0,-26.804 -11.051,0 0,22.68 c 0,5.195 -0.082,12.206 -7.175,12.206 -8,0 -9.732,-8.66 -9.732,-14.103 l 0,-20.783 -11.051,0 0,42.473" /><path
           id="path46"
           style="fill:#231f20;fill-opacity:1;fill-rule:nonzero;stroke:none"
           d="m 163.769,58.554 31.999,0 0,-9.072 -20.453,0 0,-14.184 19.463,0 0,-9.073 -19.463,0 0,-25.236 -11.546,0 0,57.565" /><path
           id="path48"
           style="fill:#231f20;fill-opacity:1;fill-rule:nonzero;stroke:none"
           d="m 202.613,43.462 9.815,0 0,-9.649 0.165,0 c 0.494,3.958 5.03,10.639 11.628,10.639 1.072,0 2.227,0 3.381,-0.33 l 0,-11.134 c -0.989,0.577 -2.969,0.907 -4.948,0.907 -8.989,0 -8.989,-11.216 -8.989,-17.319 l 0,-15.587 -11.052,0 0,42.473" /><path
           id="path50"
           style="fill:#231f20;fill-opacity:1;fill-rule:nonzero;stroke:none"
           d="m 236.674,31.751 c 3.711,2.804 8.412,4.619 13.113,4.619 6.515,0 9.566,-2.31 9.566,-9.155 l -6.103,0 c -4.618,0 -10.061,-0.413 -14.267,-2.474 -4.206,-2.062 -7.257,-5.773 -7.257,-12.123 C 231.726,4.535 239.065,0 246.57,0 c 5.031,0 10.557,2.638 13.114,7.34 l 0.164,0 c 0.083,-1.32 0.083,-4.124 0.495,-6.351 l 9.732,0 c -0.248,3.299 -0.412,6.268 -0.495,9.484 -0.083,3.134 -0.165,6.351 -0.165,10.639 l 0,5.443 c 0,12.536 -5.36,17.897 -18.309,17.897 -4.701,0 -10.474,-1.237 -14.762,-3.217 l 0.33,-9.484 z m 5.608,-18.474 c 0,6.516 7.34,7.34 12.288,7.34 l 4.783,0 c 0,-3.299 -0.494,-6.35 -2.309,-8.741 -1.732,-2.31 -4.371,-3.794 -7.752,-3.794 -3.959,0 -7.01,1.566 -7.01,5.195" /><path
           id="path52"
           style="fill:#231f20;fill-opacity:1;fill-rule:nonzero;stroke:none"
           d="m 280.302,43.462 10.473,0 0,-5.773 0.165,0 c 3.464,4.865 8.165,6.763 13.938,6.763 10.061,0 14.433,-7.093 14.433,-16.659 l 0,-26.804 -11.051,0 0,22.68 c 0,5.195 -0.083,12.206 -7.176,12.206 -7.999,0 -9.732,-8.66 -9.732,-14.103 l 0,-20.783 -11.05,0 0,42.473" /><path
           id="path54"
           style="fill:#231f20;fill-opacity:1;fill-rule:nonzero;stroke:none"
           d="m 358.237,34.307 c -1.979,0.908 -4.124,1.568 -7.505,1.568 -6.845,0 -11.216,-5.444 -11.216,-13.444 0,-7.835 3.711,-13.854 11.463,-13.854 3.134,0 6.598,1.154 8.495,1.978 l 0.495,-9.154 C 356.752,0.412 353.453,0 348.918,0 334.979,0 327.97,9.483 327.97,22.431 c 0,12.289 7.257,22.021 20.535,22.021 4.454,0 7.67,-0.495 10.722,-1.402 l -0.99,-8.743" /><path
           id="path56"
           style="fill:#231f20;fill-opacity:1;fill-rule:nonzero;stroke:none"
           d="m 369.205,61.771 11.051,0 0,-10.556 -11.051,0 0,10.556 z m 0,-18.309 11.051,0 0,-42.473 -11.051,0 0,42.473 z" /><path
           id="path58"
           style="fill:#231f20;fill-opacity:1;fill-rule:nonzero;stroke:none"
           d="m 418.77,34.555 c -3.381,1.155 -5.855,1.815 -9.896,1.815 -2.97,0 -6.516,-1.072 -6.516,-4.701 0,-6.763 19.216,-2.475 19.216,-17.815 C 421.574,3.958 412.75,0 403.761,0 c -4.206,0 -8.495,0.742 -12.536,1.814 l 0.66,9.072 c 3.464,-1.732 7.092,-2.804 10.885,-2.804 2.805,0 7.258,1.072 7.258,5.195 0,8.33 -19.215,2.64 -19.215,17.98 0,9.154 8,13.195 16.659,13.195 5.195,0 8.577,-0.825 12.041,-1.568 l -0.743,-8.329" /><path
           id="path60"
           style="fill:#231f20;fill-opacity:1;fill-rule:nonzero;stroke:none"
           d="m 459.346,34.307 c -1.98,0.908 -4.124,1.568 -7.506,1.568 -6.845,0 -11.216,-5.444 -11.216,-13.444 0,-7.835 3.711,-13.854 11.464,-13.854 3.134,0 6.598,1.154 8.494,1.978 l 0.495,-9.154 C 457.86,0.412 454.561,0 450.026,0 c -13.938,0 -20.948,9.483 -20.948,22.431 0,12.289 7.258,22.021 20.535,22.021 4.454,0 7.67,-0.495 10.722,-1.402 l -0.989,-8.743" /><path
           id="path62"
           style="fill:#231f20;fill-opacity:1;fill-rule:nonzero;stroke:none"
           d="M 465.694,21.937 C 465.694,9.731 473.859,0 487.879,0 c 14.103,0 22.267,9.731 22.267,21.937 0,14.02 -9.648,22.515 -22.267,22.515 -12.535,0 -22.185,-8.495 -22.185,-22.515 z m 11.546,1.32 c 0,6.35 3.464,12.618 10.639,12.618 7.258,0 10.722,-6.104 10.722,-12.618 0,-7.093 -2.227,-14.68 -10.722,-14.68 -8.412,0 -10.639,7.669 -10.639,14.68" /></g></g></g></svg>