<?xml version="1.0" encoding="utf-8"?>
<!-- Generator: Adobe Illustrator 16.0.0, SVG Export Plug-In . SVG Version: 6.00 Build 0)  -->
<!DOCTYPE svg PUBLIC "-//W3C//DTD SVG 1.1//EN" "http://www.w3.org/Graphics/SVG/1.1/DTD/svg11.dtd">
<svg version="1.1" id="Layer_1" xmlns="http://www.w3.org/2000/svg" xmlns:xlink="http://www.w3.org/1999/xlink" x="0px" y="0px"
	 width="300px" height="300px" viewBox="-49.5 9.5 300 300" enable-background="new -49.5 9.5 300 300" xml:space="preserve">
<rect x="-49.5" y="9.5" fill="#FEC0CB" width="300" height="300"/>
<g>
	<path opacity="0.25" fill="#800000" d="M114.065,40.778c1.381,1.381,3.628,1.38,5.009,0l1.072-1.071l-1.345-1.345l-7.152,0.001
		L114.065,40.778L114.065,40.778z"/>
	<path opacity="0.25" fill="#800000" d="M127.845,27.867c-0.363-2.516-1.699-5.039-3.765-7.104
		c-2.065-2.066-4.588-3.404-7.104-3.767c-2.147-0.31-4.043,0.137-5.4,1.259l15.01,15.01
		C127.708,31.91,128.154,30.014,127.845,27.867L127.845,27.867z"/>
	<path opacity="0.25" fill="#800000" d="M109.499,29.06l0,6.266h6.266L109.499,29.06z"/>
	<g opacity="0.25">
		<path fill="#800000" d="M104.047,30.76l2.416,2.416v-7.152l-1.344-1.344l-1.072,1.071
			C102.667,27.132,102.666,29.379,104.047,30.76L104.047,30.76z"/>
	</g>
	<g opacity="0.25">
		<path fill="#800000" d="M106.177,21.442c0.006,0.006,0.012,0.011,0.017,0.017l17.173,17.172c0.006,0.006,0.011,0.012,0.016,0.018
			c0.592,0.575,1.543,0.569,2.13-0.019c0.591-0.59,0.591-1.552-0.001-2.144l-17.174-17.174c-0.591-0.592-1.553-0.592-2.144-0.001
			C105.607,19.899,105.602,20.85,106.177,21.442L106.177,21.442z"/>
	</g>
	<path opacity="0.25" fill="#800000" d="M50.377,32.563c0.003-0.003,0.005-0.006,0.009-0.01c0.015-0.016,0.029-0.032,0.043-0.048
		c0.021-0.022,0.04-0.045,0.059-0.068c0.003-0.004,0.007-0.007,0.01-0.01l5.484-7.062c0.452-0.583,0.401-1.411-0.121-1.933
		l-9.463-9.463c-0.522-0.521-1.35-0.573-1.933-0.12l-7.062,5.483c-0.004,0.003-0.007,0.006-0.01,0.009
		c-0.024,0.019-0.046,0.039-0.069,0.059c-0.015,0.014-0.032,0.029-0.047,0.043c-0.004,0.004-0.007,0.007-0.01,0.009
		c-3.248,3.247-3.552,8.342-0.923,11.963l-3.5,3.5l-1.728-1.727c-0.571-0.572-1.498-0.572-2.07,0c-0.571,0.572-0.571,1.5,0,2.071
		l5.523,5.522c0.571,0.572,1.498,0.572,2.07,0c0.572-0.571,0.572-1.499,0-2.07l-1.727-1.727l3.5-3.5
		C42.034,36.115,47.13,35.811,50.377,32.563L50.377,32.563z M40.511,20.627l4.73-3.673l7.636,7.636l-3.673,4.73L40.511,20.627z"/>
	<g opacity="0.25">
		<path fill="#800000" d="M132.71,100.28c-0.278-0.277-0.669-0.408-1.056-0.351c-1.22,0.175-5.299,0.851-6.621,2.173
			c-0.986,0.986-1.37,2.351-1.149,3.632l-2.701-0.134c0.609-0.968,0.878-1.878,0.827-2.776c-0.047-0.838-0.367-1.55-0.814-2.185
			l6.247-3.364c0.604-0.326,0.83-1.079,0.506-1.683c-0.325-0.604-1.079-0.83-1.682-0.505l-3.968,2.136l2.136-3.966
			c0.326-0.604,0.1-1.357-0.504-1.682c-0.604-0.325-1.357-0.099-1.683,0.504l-3.364,6.248c-0.634-0.447-1.346-0.768-2.185-0.814
			c-0.898-0.05-1.808,0.218-2.776,0.827l-0.133-2.702c1.28,0.22,2.646-0.162,3.633-1.149c1.321-1.321,1.997-5.401,2.172-6.621
			c0.057-0.388-0.074-0.778-0.35-1.055c-0.277-0.277-0.668-0.407-1.056-0.351c-1.22,0.175-5.299,0.852-6.621,2.173
			c-1.49,1.49-1.604,3.842-0.34,5.466l0.31,6.285c-0.688,0.729-1.378,1.566-2.028,2.453l-1.296-1.296
			c-0.484-0.485-1.271-0.485-1.756,0.001c-0.484,0.484-0.484,1.271,0,1.755l1.644,1.644c-0.311,0.511-0.598,1.021-0.855,1.522
			c-0.46,0.896-0.801,1.713-1.025,2.451l-0.734-0.734c-0.485-0.485-1.271-0.484-1.756,0c-0.486,0.485-0.485,1.271,0,1.756
			l5.854,5.854c0.485,0.485,1.271,0.485,1.756,0c0.486-0.484,0.485-1.271,0-1.756l-0.734-0.734c0.738-0.224,1.555-0.565,2.451-1.024
			c0.5-0.258,1.012-0.546,1.522-0.855l1.639,1.639c0.485,0.485,1.271,0.485,1.756,0c0.485-0.486,0.484-1.272,0-1.757l-1.291-1.291
			c0.886-0.65,1.723-1.341,2.451-2.029l6.286,0.311c1.623,1.263,3.976,1.15,5.466-0.34c1.321-1.321,1.998-5.401,2.173-6.621
			C133.116,100.948,132.986,100.557,132.71,100.28L132.71,100.28z"/>
	</g>
	<path opacity="0.25" fill="#800000" d="M163.534,55.99c-5.327-5.326-13.993-5.326-19.319,0c-5.327,5.326-5.327,13.994,0,19.32
		c5.326,5.326,13.993,5.326,19.319,0C168.86,69.983,168.86,61.316,163.534,55.99L163.534,55.99z M151.825,67.698
		c-1.13-1.129-1.13-2.968,0-4.097c1.129-1.13,2.969-1.13,4.098,0c1.13,1.13,1.13,2.968,0.001,4.098
		C154.794,68.829,152.955,68.829,151.825,67.698L151.825,67.698z"/>
	<path opacity="0.25" fill="#800000" d="M209.662,27.427L192.096,9.863c-0.484-0.484-1.271-0.484-1.755,0l-17.562,17.563
		c-0.485,0.485-0.485,1.271-0.001,1.756l3.514,3.513c0.484,0.485,1.271,0.485,1.756,0c1.129-1.129,2.968-1.129,4.097,0
		c1.131,1.129,1.131,2.968,0,4.098c-0.484,0.486-0.484,1.272,0,1.757l8.197,8.197c0.484,0.484,1.271,0.484,1.756-0.001
		l17.562-17.563c0.232-0.233,0.364-0.548,0.364-0.878C210.025,27.976,209.893,27.659,209.662,27.427L209.662,27.427z
		 M187.414,27.427c-2.098-2.098-2.1-5.513,0-7.611c2.099-2.099,5.513-2.098,7.611,0c2.098,2.099,2.098,5.513,0,7.611
		S189.513,29.525,187.414,27.427L187.414,27.427z M188.877,37.671c-1.452-1.453-1.452-3.816,0-5.269c1.454-1.453,3.816-1.452,5.27,0
		c1.451,1.452,1.453,3.816,0,5.269C192.693,39.125,190.33,39.124,188.877,37.671L188.877,37.671z"/>
	<g opacity="0.25">
		<path fill="#800000" d="M66.875,68.078c-0.021,0.023-0.041,0.044-0.063,0.067c-0.035,0.038-0.071,0.075-0.104,0.111
			c-0.023,0.026-0.046,0.051-0.069,0.077c-0.029,0.031-0.057,0.063-0.085,0.096c-0.022,0.026-0.045,0.052-0.067,0.078
			c-0.025,0.03-0.05,0.06-0.073,0.087c-0.023,0.028-0.043,0.053-0.064,0.08c-0.022,0.027-0.044,0.055-0.064,0.082
			c-0.022,0.026-0.041,0.053-0.061,0.079c-0.021,0.025-0.041,0.052-0.059,0.076c-0.02,0.027-0.038,0.052-0.056,0.078
			c-0.017,0.024-0.035,0.049-0.052,0.072c-0.019,0.026-0.035,0.051-0.052,0.077c-0.016,0.022-0.032,0.047-0.047,0.068
			c-0.017,0.026-0.032,0.05-0.049,0.076c-0.013,0.021-0.028,0.044-0.042,0.065c-0.017,0.026-0.031,0.05-0.046,0.076
			c-0.014,0.021-0.026,0.041-0.039,0.062c-0.015,0.025-0.03,0.051-0.044,0.075c-0.011,0.019-0.022,0.039-0.034,0.057
			c-0.014,0.026-0.028,0.051-0.042,0.076c-0.01,0.018-0.02,0.036-0.029,0.053c-0.015,0.027-0.029,0.053-0.042,0.078
			c-0.009,0.016-0.018,0.031-0.025,0.047c-0.015,0.028-0.029,0.055-0.042,0.082c-0.007,0.014-0.015,0.027-0.022,0.041
			c-0.016,0.031-0.03,0.06-0.045,0.091c-0.005,0.009-0.01,0.019-0.015,0.029c-0.019,0.037-0.037,0.074-0.055,0.111
			c-0.001,0.001-0.001,0.002-0.002,0.004c0,0-0.001,0.001-0.001,0.002c-0.001,0.001,0,0.001,0,0.001
			c-0.003,0.006-0.006,0.011-0.009,0.015c-0.008,0.017-0.015,0.034-0.022,0.052c-0.006,0.013-0.013,0.028-0.019,0.042
			c-0.013,0.032-0.024,0.066-0.035,0.1c-0.003,0.01-0.004,0.02-0.008,0.03c-0.008,0.027-0.014,0.053-0.02,0.081
			c-0.002,0.01-0.003,0.019-0.005,0.03c-0.006,0.028-0.01,0.057-0.013,0.084c-0.001,0.009-0.002,0.019-0.002,0.026
			c-0.002,0.032-0.004,0.063-0.005,0.096c0,0.004-0.001,0.011,0,0.016c0,0.038,0.002,0.076,0.005,0.113
			c0,0.002,0.001,0.005,0.001,0.008c0.002,0.033,0.008,0.065,0.014,0.097c0.003,0.013,0.005,0.026,0.008,0.038
			c0.005,0.022,0.009,0.044,0.016,0.065c0.004,0.015,0.007,0.03,0.013,0.044c0.006,0.021,0.013,0.04,0.021,0.061
			c0.005,0.014,0.011,0.028,0.016,0.042c0.014,0.032,0.027,0.063,0.043,0.093c0.005,0.011,0.011,0.021,0.017,0.031
			c0.013,0.022,0.026,0.044,0.04,0.066c0.007,0.01,0.014,0.021,0.021,0.031c0.015,0.024,0.031,0.047,0.049,0.069
			c0.006,0.007,0.011,0.014,0.017,0.021c0.025,0.03,0.051,0.06,0.078,0.088c0.002,0.001,0.004,0.003,0.007,0.005l7.548,7.548
			c0.28,0.28,0.678,0.41,1.068,0.346c0.245-0.04,0.469-0.152,0.645-0.316c0.105-0.099,0.194-0.217,0.261-0.35
			c0.274-0.548,0.491-0.982,1.221-1.712c0.73-0.729,1.164-0.946,1.713-1.222c0.629-0.314,1.342-0.671,2.355-1.685l0,0
			c1.013-1.013,1.37-1.725,1.684-2.354c0.275-0.549,0.492-0.983,1.222-1.713c0.729-0.73,1.163-0.947,1.713-1.221
			c0.569-0.285,1.209-0.606,2.077-1.417c0.09-0.084,0.182-0.171,0.277-0.267h0c1.014-1.012,1.369-1.725,1.683-2.354
			c0.275-0.549,0.492-0.983,1.223-1.713c0.729-0.73,1.164-0.947,1.713-1.222c0.002-0.001,0.004-0.002,0.007-0.004
			c0.026-0.013,0.051-0.028,0.075-0.042c0.012-0.006,0.023-0.013,0.035-0.02c0.019-0.012,0.037-0.026,0.055-0.039
			c0.016-0.012,0.033-0.023,0.048-0.035c0.007-0.007,0.014-0.013,0.021-0.019c0.005-0.003,0.009-0.007,0.014-0.012
			c0.001,0,0.002-0.001,0.003-0.002c0.02-0.017,0.039-0.033,0.058-0.051c0.002-0.002,0.003-0.004,0.006-0.006
			c0.007-0.007,0.015-0.016,0.021-0.023v0c0.006-0.006,0.01-0.011,0.015-0.017c0.013-0.014,0.027-0.028,0.039-0.043
			c0.002-0.003,0.005-0.006,0.007-0.008c0.009-0.011,0.017-0.021,0.024-0.032c0,0,0,0,0.001,0l0,0
			c0.013-0.017,0.026-0.035,0.038-0.052c0,0,0-0.001,0-0.001s0,0,0-0.001c0.012-0.018,0.022-0.035,0.034-0.054l0,0c0,0,0,0,0.001,0
			c0.008-0.014,0.018-0.029,0.026-0.044c0,0,0,0,0-0.001c0,0,0,0,0,0c0.011-0.021,0.021-0.042,0.032-0.063c0,0,0-0.001,0-0.001
			s0.001,0,0.001-0.001c0.006-0.013,0.012-0.025,0.017-0.038l0.002-0.001v0c0.01-0.022,0.018-0.044,0.026-0.067
			c0,0,0.001-0.001,0.001-0.003c0-0.001,0-0.001,0-0.002c0.005-0.012,0.009-0.025,0.014-0.038c-0.001,0-0.001,0,0-0.001
			c0,0,0-0.001,0.001-0.001c0.006-0.021,0.012-0.043,0.018-0.065c0,0,0.001-0.001,0-0.002c0-0.001,0.001-0.002,0.001-0.003
			c0.003-0.014,0.007-0.028,0.01-0.042c0,0,0-0.001,0.001-0.002c0,0,0,0,0-0.002c0.003-0.02,0.007-0.04,0.011-0.06
			c0-0.001,0-0.001,0-0.002c0,0,0-0.001,0-0.001c0.003-0.017,0.006-0.035,0.008-0.052c0,0,0,0,0-0.001c0,0,0,0,0-0.002
			c0.002-0.018,0.004-0.036,0.004-0.053c0-0.001,0-0.002,0-0.003c0,0,0-0.002,0-0.003c0.002-0.018,0.002-0.038,0.003-0.057
			c0-0.001,0-0.002,0-0.003c0,0,0,0,0-0.002c0-0.016-0.001-0.032-0.001-0.048c0.001-0.001,0-0.002,0.001-0.003
			c0-0.001,0-0.002,0-0.003c-0.001-0.021-0.001-0.04-0.004-0.06c0.001-0.001,0-0.001,0-0.002c0-0.001,0-0.002,0-0.002
			c-0.001-0.017-0.003-0.033-0.005-0.049c0,0,0-0.002-0.001-0.003c0-0.001,0-0.003,0-0.003c-0.002-0.019-0.005-0.038-0.008-0.057
			c0-0.001,0-0.001,0-0.002c0,0,0,0,0,0c-0.003-0.02-0.008-0.038-0.012-0.056c0-0.002-0.001-0.003-0.001-0.004
			c0-0.001,0-0.003-0.001-0.004c-0.003-0.016-0.007-0.031-0.011-0.048c0,0,0-0.001-0.001-0.001c0-0.001,0-0.002,0-0.002
			c-0.006-0.022-0.014-0.044-0.021-0.066c0-0.002-0.001-0.004-0.002-0.006l-0.001-0.006c-0.003-0.01-0.007-0.021-0.011-0.03
			c0,0,0-0.002-0.001-0.002c0,0,0-0.002,0-0.002c-0.01-0.026-0.022-0.051-0.033-0.078c-0.001-0.001-0.002-0.004-0.003-0.005
			c-0.002-0.007-0.005-0.014-0.009-0.022c-0.001-0.001-0.002-0.003-0.003-0.006c0,0,0,0-0.001-0.001
			c-0.012-0.024-0.026-0.047-0.04-0.072c-0.002-0.002-0.003-0.004-0.004-0.008c-0.002-0.001-0.003-0.004-0.004-0.007
			c-0.005-0.006-0.008-0.014-0.013-0.02c0-0.001,0-0.001,0-0.002c0,0-0.001-0.001-0.001-0.001c-0.011-0.018-0.023-0.034-0.035-0.051
			c-0.002-0.001-0.003-0.003-0.004-0.006c-0.002-0.002-0.004-0.003-0.005-0.006c-0.009-0.012-0.019-0.025-0.028-0.037l0-0.001
			c0-0.001,0-0.001-0.001-0.002c-0.008-0.011-0.019-0.021-0.028-0.032c-0.002-0.002-0.003-0.004-0.005-0.006
			c-0.001-0.002-0.003-0.003-0.005-0.005c-0.014-0.017-0.028-0.033-0.043-0.048c0,0,0-0.001-0.001-0.002
			c-0.001-0.001-0.003-0.004-0.006-0.007l-7.556-7.555c-0.375-0.375-0.948-0.468-1.423-0.23c-0.628,0.313-1.341,0.67-2.354,1.683
			l0,0c-1.013,1.013-1.369,1.726-1.684,2.354c-0.275,0.549-0.492,0.983-1.222,1.713c-0.73,0.73-1.164,0.947-1.713,1.222
			c-0.629,0.314-1.342,0.67-2.355,1.684l0,0c-1.013,1.013-1.37,1.725-1.684,2.354c-0.274,0.549-0.491,0.983-1.221,1.713
			s-1.165,0.947-1.713,1.221c-0.629,0.315-1.341,0.671-2.354,1.685c-0.003,0.003-0.006,0.006-0.009,0.009
			C66.988,67.961,66.93,68.021,66.875,68.078L66.875,68.078z M75.977,66.905c0.314-0.628,0.671-1.341,1.684-2.354
			c1.013-1.013,1.725-1.369,2.354-1.683c0.549-0.275,0.983-0.492,1.714-1.222c0.729-0.73,0.946-1.164,1.221-1.713
			c0.314-0.629,0.671-1.341,1.684-2.354c0.339-0.339,0.644-0.603,0.924-0.818l1.766,1.765c-0.274,0.182-0.571,0.42-0.947,0.796
			c-0.731,0.73-0.947,1.164-1.221,1.713c-0.315,0.629-0.671,1.342-1.684,2.354l0,0c-1.013,1.013-1.726,1.369-2.354,1.684
			c-0.549,0.274-0.983,0.492-1.713,1.222c-0.73,0.73-0.947,1.164-1.222,1.713c-0.314,0.629-0.67,1.341-1.684,2.354l0,0
			c-1.013,1.013-1.725,1.369-2.354,1.684c-0.549,0.275-0.982,0.492-1.713,1.222c-0.375,0.375-0.615,0.672-0.795,0.947l-1.766-1.766
			c0.215-0.279,0.479-0.585,0.818-0.924c1.013-1.013,1.725-1.369,2.354-1.684c0.549-0.275,0.983-0.491,1.713-1.222l0,0
			C75.486,67.888,75.702,67.455,75.977,66.905L75.977,66.905z"/>
	</g>
	<g opacity="0.25">
		<path fill="#800000" d="M205.697,101.086c-1.311-3.167-3.198-5.996-5.613-8.41c-2.405-2.404-5.228-4.288-8.395-5.599
			c-0.628-0.26-1.35,0.039-1.61,0.667l-9.434,22.774c-0.19,0.461-0.086,0.992,0.267,1.344c0.354,0.352,0.882,0.458,1.344,0.267
			l18.488-7.658c0.003-0.001,0.008-0.002,0.012-0.004l4.276-1.771C205.66,102.435,205.959,101.715,205.697,101.086L205.697,101.086z
			 M194.687,104.313c-0.1-0.212-0.236-0.411-0.41-0.584c-0.802-0.803-2.104-0.802-2.905,0c-0.583,0.583-0.742,1.428-0.478,2.156
			l-6.832,2.831l1.74-4.2c0.803,0.588,1.939,0.521,2.664-0.206c0.803-0.802,0.803-2.104,0-2.905
			c-0.32-0.321-0.721-0.513-1.137-0.577l2.734-6.603c3.536,2.045,6.436,4.945,8.487,8.488L194.687,104.313z"/>
	</g>
	<path opacity="0.25" fill="#800000" d="M193.405,101.113c-0.801,0.802-2.103,0.802-2.904,0c-0.803-0.803-0.803-2.103,0-2.905
		c0.803-0.802,2.103-0.802,2.904,0C194.208,99.01,194.208,100.311,193.405,101.113L193.405,101.113z"/>
	<path opacity="0.25" fill="#800000" d="M158.749,151.473l-17.497-17.497c-0.483-0.483-1.267-0.483-1.749,0l-1.75,1.75
		c-2.091,2.09-2.091,5.492,0,7.583l11.665,11.664c2.09,2.091,5.492,2.091,7.583,0l1.75-1.75
		C159.232,152.74,159.232,151.957,158.749,151.473L158.749,151.473z"/>
	<g opacity="0.25">
		<path fill="#800000" d="M147.087,128.141l17.497,17.498c0.483,0.483,1.266,0.483,1.749,0l1.749-1.749
			c2.091-2.091,2.091-5.493,0.001-7.583l-1.458-1.458l-2.624,2.625c-0.483,0.483-1.267,0.482-1.75,0
			c-0.483-0.483-0.482-1.267,0.001-1.75l2.624-2.625l-1.75-1.75l-2.625,2.625c-0.483,0.483-1.267,0.483-1.749,0
			c-0.485-0.483-0.483-1.266,0-1.75l2.625-2.625l-1.751-1.75l-2.624,2.625c-0.483,0.483-1.267,0.483-1.749,0
			c-0.484-0.483-0.484-1.266,0-1.75l2.624-2.624l-1.458-1.458c-2.09-2.09-5.492-2.092-7.583,0l-1.749,1.749
			C146.603,126.875,146.603,127.657,147.087,128.141L147.087,128.141z"/>
	</g>
	<g opacity="0.25">
		<path fill="#800000" d="M162.219,147.45c-0.551-0.274-0.986-0.492-1.72-1.226v0c-0.733-0.732-0.952-1.167-1.226-1.72
			c-0.315-0.63-0.673-1.345-1.688-2.361c-0.001,0-0.001-0.001-0.002-0.001c-1.017-1.018-1.731-1.375-2.364-1.69
			c-0.551-0.275-0.986-0.493-1.719-1.226l0,0c-0.733-0.733-0.951-1.168-1.227-1.72c-0.314-0.63-0.672-1.345-1.688-2.362
			c0,0,0,0,0-0.001c-1.017-1.018-1.732-1.375-2.363-1.69c-0.551-0.275-0.987-0.494-1.72-1.226c0,0-0.001,0-0.001-0.001
			c-0.732-0.732-0.95-1.167-1.225-1.718l-0.001-0.001c-0.306-0.612-1.048-0.858-1.66-0.553c-0.612,0.306-0.859,1.049-0.554,1.66
			c0.316,0.63,0.674,1.346,1.69,2.362v0.001c1.017,1.017,1.732,1.373,2.362,1.689c0.551,0.276,0.987,0.493,1.719,1.225
			c0.001,0.001,0.001,0.001,0.001,0.002c0.733,0.732,0.95,1.168,1.226,1.72c0.316,0.63,0.674,1.347,1.69,2.362l0,0.001
			c1.017,1.017,1.731,1.374,2.362,1.69c0.553,0.275,0.987,0.491,1.72,1.226h0.001c0.733,0.733,0.951,1.169,1.227,1.72
			c0.316,0.63,0.673,1.346,1.689,2.363l0.001,0.001c1.016,1.015,1.731,1.374,2.362,1.688c0.611,0.307,1.354,0.058,1.659-0.554
			C163.078,148.5,162.831,147.756,162.219,147.45L162.219,147.45z"/>
	</g>
	<g opacity="0.25">
		<path fill="#800000" d="M229.166,144.546c4.293-4.292,4.293-11.278,0-15.571l-0.864-0.864l-15.572,15.57l0.866,0.865
			C217.889,148.839,224.873,148.84,229.166,144.546L229.166,144.546z"/>
	</g>
	<g opacity="0.25">
		<path fill="#800000" d="M230.896,146.276c-3.215,3.214-7.664,4.459-11.836,3.734l6.934,6.936l15.572-15.572l-6.936-6.935
			C235.355,138.611,234.112,143.062,230.896,146.276L230.896,146.276z"/>
	</g>
	<path opacity="0.25" fill="#800000" d="M243.179,139.526c0.751-1.482,0.509-3.342-0.728-4.578c-0.747-0.747-1.721-1.13-2.699-1.152
		c-0.023-0.979-0.406-1.953-1.152-2.7c-0.746-0.746-1.721-1.129-2.699-1.151c-0.023-0.98-0.406-1.953-1.152-2.699
		c-1.237-1.237-3.096-1.479-4.578-0.728L243.179,139.526z"/>
	<path opacity="0.25" fill="#800000" d="M213.007,66.667c0.886,2.655,2.729,5.472,5.189,7.934c2.461,2.461,5.278,4.303,7.935,5.19
		c2.997,0.998,5.51,0.687,7.073-0.877l8.624-8.625c1.564-1.564,1.877-4.077,0.877-7.073c-0.885-2.655-2.727-5.473-5.188-7.934
		c-2.463-2.461-5.28-4.304-7.935-5.19c-2.996-0.998-5.51-0.687-7.074,0.877l-8.625,8.625
		C212.318,61.158,212.008,63.67,213.007,66.667L213.007,66.667z M235.445,57.352c4.346,4.345,5.859,9.321,4.313,10.868
		c-1.548,1.546-6.523,0.031-10.866-4.313c-4.346-4.344-5.861-9.32-4.313-10.867C226.127,51.492,231.102,53.007,235.445,57.352
		L235.445,57.352z"/>
	<path opacity="0.25" fill="#800000" d="M235.274,63.734c-0.858,0.857-2.943,0.162-4.658-1.553c-1.715-1.714-2.41-3.8-1.553-4.658
		c0.856-0.857,2.942-0.162,4.657,1.552C235.437,60.791,236.131,62.877,235.274,63.734L235.274,63.734z"/>
	<path opacity="0.25" fill="#800000" d="M200.299,182.485c0.004-0.003,0.007-0.005,0.01-0.009c0.014-0.015,0.029-0.032,0.043-0.047
		c0.02-0.023,0.041-0.045,0.059-0.068c0.005-0.004,0.008-0.008,0.01-0.011l5.483-7.062c0.453-0.582,0.401-1.411-0.12-1.933
		l-9.463-9.462c-0.522-0.522-1.35-0.574-1.933-0.121l-7.062,5.483c-0.004,0.004-0.007,0.007-0.01,0.009
		c-0.024,0.019-0.046,0.038-0.069,0.06c-0.016,0.013-0.033,0.027-0.047,0.042c-0.003,0.004-0.007,0.006-0.009,0.008
		c-3.249,3.249-3.553,8.343-0.922,11.963l-3.501,3.5l-1.727-1.726c-0.57-0.571-1.499-0.571-2.069,0
		c-0.572,0.572-0.572,1.5-0.001,2.07l5.523,5.523c0.572,0.571,1.5,0.572,2.072,0c0.571-0.572,0.571-1.5-0.001-2.071l-1.726-1.726
		l3.499-3.5C191.956,186.037,197.052,185.732,200.299,182.485L200.299,182.485z M190.433,170.549l4.73-3.674l7.638,7.638
		l-3.674,4.729L190.433,170.549z"/>
	<g opacity="0.25">
		<path fill="#800000" d="M216.796,218c-0.021,0.023-0.04,0.045-0.062,0.067c-0.034,0.037-0.07,0.075-0.104,0.11
			c-0.023,0.027-0.046,0.053-0.069,0.077c-0.029,0.032-0.057,0.063-0.084,0.096c-0.023,0.026-0.045,0.053-0.068,0.079
			c-0.023,0.029-0.049,0.059-0.072,0.087c-0.021,0.027-0.042,0.052-0.064,0.079c-0.021,0.027-0.045,0.056-0.065,0.081
			c-0.021,0.028-0.04,0.053-0.06,0.08c-0.021,0.025-0.041,0.051-0.059,0.075c-0.021,0.027-0.039,0.053-0.057,0.078
			c-0.018,0.023-0.035,0.048-0.053,0.072c-0.018,0.026-0.034,0.052-0.052,0.076c-0.016,0.023-0.032,0.048-0.047,0.069
			c-0.018,0.025-0.032,0.05-0.05,0.075c-0.013,0.022-0.028,0.044-0.043,0.065c-0.016,0.025-0.029,0.051-0.044,0.075
			c-0.015,0.02-0.026,0.041-0.039,0.062c-0.016,0.026-0.029,0.052-0.043,0.075c-0.012,0.021-0.023,0.038-0.034,0.058
			c-0.016,0.026-0.029,0.052-0.043,0.075c-0.011,0.019-0.02,0.037-0.03,0.054c-0.014,0.026-0.027,0.052-0.042,0.077
			c-0.008,0.016-0.017,0.032-0.023,0.047c-0.016,0.028-0.029,0.056-0.043,0.082c-0.008,0.014-0.016,0.027-0.022,0.041
			c-0.016,0.03-0.03,0.059-0.045,0.09c-0.006,0.01-0.009,0.021-0.015,0.03c-0.02,0.036-0.038,0.073-0.057,0.111
			c0,0.001-0.001,0.002-0.002,0.004c0,0,0,0.001,0,0.002c-0.001,0.001-0.001,0.001-0.001,0.001
			c-0.004,0.006-0.006,0.012-0.009,0.015c-0.008,0.018-0.016,0.034-0.023,0.053c-0.006,0.013-0.012,0.026-0.019,0.042
			c-0.013,0.031-0.023,0.066-0.034,0.101c-0.003,0.009-0.006,0.019-0.008,0.029c-0.008,0.026-0.015,0.054-0.021,0.081
			c-0.002,0.01-0.002,0.02-0.004,0.03c-0.005,0.027-0.01,0.056-0.013,0.084c-0.001,0.009-0.002,0.017-0.002,0.025
			c-0.003,0.032-0.005,0.063-0.005,0.096c0,0.005,0,0.012,0,0.016c0,0.038,0.002,0.075,0.005,0.114c0,0.002,0.001,0.004,0.001,0.008
			c0.004,0.033,0.008,0.064,0.014,0.097c0.004,0.013,0.006,0.025,0.009,0.038c0.005,0.021,0.01,0.044,0.015,0.065
			c0.004,0.015,0.009,0.029,0.014,0.045c0.007,0.02,0.014,0.04,0.021,0.06c0.005,0.016,0.011,0.029,0.017,0.043
			c0.014,0.031,0.027,0.062,0.044,0.092c0.005,0.012,0.01,0.021,0.017,0.032c0.013,0.021,0.025,0.043,0.039,0.065
			c0.007,0.012,0.015,0.021,0.021,0.031c0.015,0.023,0.031,0.047,0.049,0.069c0.006,0.007,0.012,0.013,0.018,0.021
			c0.024,0.03,0.051,0.06,0.078,0.086c0.001,0.003,0.004,0.005,0.006,0.006l7.549,7.549c0.28,0.28,0.677,0.408,1.067,0.346
			c0.245-0.04,0.47-0.152,0.646-0.317c0.105-0.099,0.194-0.217,0.262-0.35c0.273-0.549,0.49-0.981,1.221-1.712
			c0.729-0.73,1.163-0.947,1.712-1.223c0.63-0.314,1.342-0.671,2.354-1.684l0,0c1.014-1.013,1.37-1.726,1.685-2.354
			c0.274-0.549,0.491-0.983,1.222-1.713c0.729-0.729,1.164-0.946,1.714-1.222c0.569-0.285,1.209-0.607,2.076-1.417
			c0.091-0.084,0.182-0.171,0.276-0.267h0.001c1.013-1.014,1.368-1.726,1.684-2.354c0.275-0.55,0.491-0.983,1.222-1.713
			c0.729-0.729,1.164-0.946,1.713-1.221c0.002-0.004,0.004-0.004,0.007-0.005c0.026-0.014,0.051-0.029,0.074-0.042
			c0.012-0.007,0.023-0.013,0.035-0.021c0.021-0.012,0.037-0.025,0.056-0.039c0.016-0.012,0.032-0.023,0.049-0.035
			c0.006-0.006,0.014-0.012,0.02-0.018c0.004-0.004,0.009-0.008,0.014-0.013c0.002,0,0.002-0.001,0.004-0.003
			c0.02-0.017,0.038-0.034,0.057-0.051c0.003-0.002,0.005-0.004,0.007-0.007c0.008-0.007,0.015-0.015,0.021-0.024l0,0
			c0.006-0.005,0.01-0.011,0.016-0.016c0.014-0.015,0.027-0.028,0.039-0.044c0.003-0.003,0.005-0.006,0.006-0.008
			c0.009-0.011,0.018-0.021,0.025-0.032c0,0,0,0,0.001-0.002l0,0c0.013-0.018,0.025-0.035,0.039-0.052v-0.001c0,0,0.002,0,0-0.001
			c0.014-0.017,0.022-0.034,0.034-0.054l0,0c0,0,0,0,0-0.001c0.01-0.014,0.019-0.028,0.026-0.044l0,0c0,0,0,0,0.002,0
			c0.01-0.021,0.021-0.042,0.03-0.063c0.001-0.001,0.001-0.001,0.001-0.002c0,0,0.002,0,0.002-0.002
			c0.006-0.013,0.012-0.024,0.017-0.037l0.001-0.001h0.001c0.009-0.022,0.017-0.045,0.024-0.067
			c0.001-0.001,0.001-0.002,0.003-0.003c0-0.001,0-0.001,0-0.002c0.005-0.012,0.009-0.025,0.015-0.037
			c-0.001-0.002-0.001-0.002,0-0.002l0,0c0.006-0.021,0.012-0.045,0.018-0.065c0-0.002,0.001-0.003,0-0.003
			c0.001,0,0.001-0.002,0.003-0.004c0.003-0.014,0.006-0.027,0.009-0.043c0,0,0,0,0.001-0.001V211.1
			c0.005-0.021,0.008-0.041,0.011-0.061c0-0.002,0-0.002,0-0.003c0,0,0.001-0.001,0-0.001c0.004-0.018,0.007-0.035,0.01-0.053
			c-0.001,0-0.001,0,0-0.001c-0.001-0.001-0.001-0.001,0-0.001c0.001-0.019,0.002-0.037,0.003-0.055c0-0.001,0.002-0.002,0-0.002
			c0.002-0.001,0-0.002,0-0.004c0.003-0.019,0.004-0.037,0.004-0.057c0.001-0.002,0-0.002,0.001-0.002
			c-0.001-0.002-0.001-0.002-0.001-0.002c0-0.017,0-0.033,0-0.049c0-0.001,0-0.002,0-0.003s0-0.002,0-0.004
			c-0.001-0.02-0.001-0.04-0.004-0.06c0-0.001,0-0.002,0-0.003s0-0.001,0-0.003c-0.001-0.017-0.003-0.031-0.005-0.049
			c-0.001,0,0,0-0.001-0.002c0-0.002,0-0.003,0-0.004c-0.002-0.02-0.006-0.037-0.009-0.057c0-0.001,0-0.001,0-0.002
			c0,0,0-0.001,0-0.002c-0.004-0.019-0.007-0.037-0.012-0.056c0-0.001-0.001-0.002-0.001-0.004c0-0.001,0-0.003-0.001-0.003
			c-0.003-0.018-0.008-0.033-0.011-0.049c0,0-0.001-0.001-0.001-0.002v-0.001c-0.007-0.022-0.014-0.044-0.022-0.066
			c0-0.003-0.001-0.004-0.003-0.006v-0.007c-0.003-0.011-0.007-0.021-0.012-0.03c0-0.001,0-0.002,0-0.002c0-0.001,0-0.002,0-0.002
			c-0.012-0.026-0.023-0.052-0.035-0.078c0-0.001,0-0.003-0.002-0.005c-0.003-0.008-0.006-0.014-0.01-0.021
			c0-0.002-0.002-0.004-0.002-0.006c0,0,0,0-0.002-0.002c-0.012-0.024-0.026-0.048-0.04-0.071c-0.001-0.002-0.003-0.006-0.003-0.008
			c-0.002-0.001-0.004-0.004-0.005-0.007c-0.005-0.006-0.009-0.015-0.013-0.02c0-0.002,0-0.002-0.001-0.003l-0.001-0.001
			c-0.012-0.019-0.023-0.034-0.035-0.052c-0.003-0.002-0.004-0.005-0.004-0.007c-0.002-0.001-0.005-0.004-0.005-0.006
			c-0.009-0.012-0.02-0.024-0.029-0.036v-0.001c0-0.002,0-0.002-0.001-0.002c-0.009-0.012-0.018-0.021-0.028-0.032
			c-0.001-0.003-0.003-0.005-0.004-0.007c-0.003-0.001-0.004-0.002-0.005-0.004c-0.016-0.018-0.028-0.033-0.045-0.05v-0.001
			c-0.003-0.002-0.004-0.004-0.007-0.007l-7.556-7.556c-0.374-0.376-0.948-0.468-1.424-0.231c-0.628,0.315-1.34,0.672-2.354,1.685
			l0,0c-1.013,1.012-1.369,1.725-1.684,2.354c-0.274,0.549-0.491,0.983-1.222,1.714c-0.729,0.729-1.164,0.946-1.714,1.221
			c-0.629,0.315-1.34,0.672-2.354,1.686l0,0c-1.014,1.013-1.369,1.725-1.684,2.353c-0.275,0.55-0.492,0.984-1.223,1.715
			c-0.73,0.729-1.164,0.946-1.713,1.221c-0.629,0.314-1.341,0.672-2.354,1.685c-0.004,0.003-0.007,0.007-0.01,0.008
			C216.91,217.884,216.852,217.943,216.796,218L216.796,218z M225.899,216.828c0.313-0.629,0.67-1.342,1.683-2.354
			s1.727-1.369,2.354-1.684c0.55-0.275,0.983-0.492,1.714-1.223c0.729-0.729,0.946-1.163,1.222-1.712
			c0.314-0.63,0.67-1.342,1.684-2.355c0.339-0.338,0.644-0.603,0.925-0.817l1.765,1.765c-0.273,0.182-0.571,0.421-0.946,0.797
			c-0.73,0.73-0.947,1.164-1.223,1.713c-0.312,0.629-0.67,1.341-1.683,2.354l0,0c-1.013,1.014-1.726,1.37-2.354,1.686
			c-0.549,0.273-0.983,0.49-1.714,1.221s-0.946,1.164-1.222,1.713c-0.314,0.629-0.67,1.343-1.684,2.354l0,0
			c-1.012,1.014-1.725,1.37-2.354,1.686c-0.549,0.273-0.981,0.49-1.713,1.221c-0.376,0.376-0.614,0.673-0.795,0.947l-1.767-1.767
			c0.215-0.279,0.479-0.583,0.817-0.923c1.015-1.014,1.727-1.369,2.355-1.685c0.549-0.275,0.983-0.49,1.713-1.222l0,0
			C225.408,217.811,225.624,217.377,225.899,216.828L225.899,216.828z"/>
	</g>
	<g opacity="0.25">
		<path fill="#800000" d="M36.635,108.799l-8.524,0.001c0.12,0.844,0.507,1.624,1.121,2.238c0.749,0.748,1.745,1.16,2.803,1.161
			h18.122c1.994,0,3.648-1.479,3.923-3.399L36.635,108.799z"/>
	</g>
	<g opacity="0.25">
		<path fill="#800000" d="M54.689,105.402c0.935-0.001,1.695-0.762,1.694-1.697c0.001-0.455-0.176-0.883-0.498-1.204
			c-0.309-0.309-0.714-0.481-1.147-0.495l-27.289-0.001c-0.911,0.029-1.644,0.779-1.644,1.699c0,0.453,0.176,0.879,0.497,1.2
			c0.321,0.321,0.746,0.497,1.2,0.498h13.592H54.689z"/>
	</g>
	<g opacity="0.25">
		<path fill="#800000" d="M52.959,96.372c-0.749-0.75-1.745-1.162-2.803-1.163l-18.122,0c-1.992,0-3.646,1.479-3.923,3.396
			l25.969,0.001C53.96,97.763,53.572,96.984,52.959,96.372L52.959,96.372z"/>
	</g>
	<path opacity="0.25" fill="#800000" d="M-25.143,32.948c3.378-4.142,3.138-10.271-0.722-14.13
		c-3.859-3.858-9.988-4.099-14.13-0.721c-1.654-0.922-3.787-0.682-5.19,0.721c-1.452,1.453-1.659,3.684-0.624,5.358l14.585,14.585
		c1.675,1.036,3.907,0.828,5.358-0.624C-24.461,36.734-24.221,34.602-25.143,32.948L-25.143,32.948z"/>
	<path opacity="0.25" fill="#800000" d="M-37.082,42.277l3.664-2.198l-13.707-13.707l-2.198,3.664
		c-0.293,0.488-0.216,1.114,0.187,1.517l10.538,10.538C-38.195,42.493-37.569,42.57-37.082,42.277L-37.082,42.277z"/>
	<path opacity="0.25" fill="#800000" d="M-35.869,190.711c1.381,1.381,3.628,1.38,5.009,0l1.071-1.072l-1.345-1.343h-7.151
		L-35.869,190.711L-35.869,190.711z"/>
	<path opacity="0.25" fill="#800000" d="M-22.087,177.8c-0.363-2.515-1.701-5.037-3.766-7.104c-2.065-2.066-4.589-3.403-7.104-3.766
		c-2.147-0.31-4.043,0.137-5.399,1.259l15.01,15.01C-22.224,181.843-21.778,179.947-22.087,177.8L-22.087,177.8z"/>
	<path opacity="0.25" fill="#800000" d="M-40.434,178.993l0.001,6.267l6.265-0.001L-40.434,178.993z"/>
	<g opacity="0.25">
		<path fill="#800000" d="M-45.886,180.694l2.416,2.415v-7.153l-1.345-1.343l-1.071,1.072
			C-47.267,177.066-47.267,179.312-45.886,180.694L-45.886,180.694z"/>
	</g>
	<g opacity="0.25">
		<path fill="#800000" d="M-43.757,171.375c0.006,0.006,0.012,0.011,0.018,0.016l17.172,17.172c0.006,0.006,0.011,0.012,0.016,0.018
			c0.593,0.575,1.542,0.57,2.13-0.018c0.59-0.591,0.59-1.552-0.001-2.144l-17.174-17.174c-0.59-0.59-1.553-0.592-2.143-0.001
			C-44.327,169.832-44.332,170.783-43.757,171.375L-43.757,171.375z"/>
	</g>
	<g opacity="0.25">
		<path fill="#800000" d="M-41.044,99.906l-1.701-1.701c-1.346-1.346-3.535-1.346-4.88,0c-1.346,1.345-1.347,3.535,0,4.881
			l0.271,0.271l-0.271,0.271c-1.346,1.345-1.346,3.534,0,4.88c1.346,1.345,3.535,1.346,4.88,0l1.701-1.701h1.703v-6.903
			L-41.044,99.906z"/>
	</g>
	<g opacity="0.25">
		<path fill="#800000" d="M-26.864,94.538c-2.086,0-5.505,1.482-10.177,4.411v8.817c4.672,2.927,8.091,4.412,10.177,4.411
			c4.863,0,8.82-3.957,8.82-8.82S-22.001,94.538-26.864,94.538L-26.864,94.538z"/>
	</g>
	<g opacity="0.25">
		<path fill="#800000" d="M13.598,148.727L-3.9,131.229c-0.482-0.483-1.266-0.483-1.75,0c-3.456,3.457-4.661,8.324-3.614,12.766
			c-0.277,0.026-0.548,0.145-0.76,0.357c-0.483,0.483-0.483,1.267,0,1.75l8.749,8.748c0.483,0.482,1.267,0.482,1.75-0.001
			c0.212-0.212,0.332-0.482,0.357-0.759c4.441,1.046,9.31-0.158,12.766-3.615C14.081,149.992,14.081,149.209,13.598,148.727
			L13.598,148.727z"/>
	</g>
	<g opacity="0.25">
		<path fill="#800000" d="M9.877,128.021c0-0.683-0.554-1.237-1.237-1.236c-0.955-0.001-2.262,0-3.499,1.236
			c-1.237,1.237-1.238,2.545-1.237,3.5c0,0.858-0.021,1.258-0.513,1.75c-0.482,0.483-0.483,1.266,0.001,1.75
			c0.482,0.483,1.266,0.483,1.75,0c1.237-1.237,1.237-2.545,1.237-3.5c0-0.858,0.02-1.257,0.512-1.749s0.891-0.513,1.75-0.513
			C9.323,129.259,9.877,128.705,9.877,128.021L9.877,128.021z"/>
	</g>
	<g opacity="0.25">
		<path fill="#800000" d="M13.959,132.104c0-0.683-0.554-1.237-1.238-1.237c-0.954-0.001-2.262,0-3.499,1.237
			c-1.237,1.236-1.238,2.544-1.237,3.499c0,0.857-0.021,1.258-0.513,1.75c-0.483,0.482-0.483,1.266,0.001,1.75
			c0.482,0.483,1.266,0.483,1.749,0c1.238-1.238,1.237-2.545,1.237-3.5c0-0.858,0.021-1.257,0.513-1.75
			c0.492-0.492,0.891-0.512,1.75-0.512C13.405,133.341,13.959,132.787,13.959,132.104L13.959,132.104z"/>
	</g>
	<g opacity="0.25">
		<path fill="#800000" d="M18.042,136.187c0-0.684-0.554-1.238-1.237-1.238c-0.954,0-2.263,0-3.5,1.237
			c-1.237,1.237-1.238,2.545-1.237,3.5c0.001,0.858-0.02,1.258-0.512,1.75c-0.483,0.483-0.483,1.267,0,1.749
			c0.483,0.484,1.267,0.483,1.75,0.001c1.238-1.238,1.237-2.546,1.238-3.5c0-0.858,0.02-1.257,0.512-1.75
			c0.492-0.492,0.892-0.512,1.75-0.512C17.488,137.424,18.042,136.87,18.042,136.187L18.042,136.187z"/>
	</g>
	<path opacity="0.25" fill="#800000" d="M92.373,144.326l-3.221-3.22l3.22-3.221c0.593-0.593,0.593-1.554,0.001-2.146l-12.881-12.88
		c-0.593-0.593-1.554-0.592-2.146,0.001l-17.173,17.172c-0.593,0.594-0.592,1.555,0,2.147l12.88,12.879
		c0.593,0.594,1.553,0.594,2.146,0l1.073-1.073l3.221,3.221c0.593,0.593,1.553,0.593,2.146,0l10.732-10.733
		C92.965,145.878,92.965,144.917,92.373,144.326L92.373,144.326z M70.906,142.178c-0.593,0.593-1.554,0.593-2.146,0
		c-0.593-0.592-0.593-1.553,0-2.147l4.293-4.292c0.594-0.593,1.554-0.593,2.146,0c0.593,0.592,0.594,1.553,0,2.146L70.906,142.178z
		 M75.199,146.472c-0.593,0.593-1.554,0.593-2.146,0c-0.592-0.593-0.592-1.553,0-2.146l4.294-4.294c0.593-0.592,1.554-0.592,2.146,0
		c0.593,0.594,0.594,1.554,0,2.147L75.199,146.472z M87.005,138.958l-10.732-10.732l2.146-2.146l10.732,10.732L87.005,138.958z
		 M80.565,153.985l-2.146-2.147l8.586-8.586l2.146,2.147L80.565,153.985z"/>
	<g opacity="0.25">
		<path fill="#800000" d="M-17.224,250.213c-0.277-0.275-0.668-0.406-1.055-0.351c-1.22,0.175-5.3,0.853-6.621,2.173
			c-0.987,0.988-1.37,2.352-1.149,3.633l-2.702-0.133c0.61-0.969,0.877-1.879,0.828-2.777c-0.046-0.839-0.367-1.551-0.814-2.185
			l6.247-3.362c0.604-0.327,0.83-1.08,0.505-1.684c-0.325-0.604-1.079-0.83-1.682-0.506l-3.967,2.137l2.136-3.967
			c0.325-0.603,0.1-1.357-0.505-1.682c-0.604-0.326-1.357-0.1-1.683,0.506l-3.363,6.246c-0.634-0.446-1.346-0.768-2.185-0.814
			c-0.898-0.049-1.808,0.219-2.776,0.827l-0.134-2.7c1.281,0.219,2.645-0.162,3.632-1.15c1.321-1.32,1.998-5.4,2.173-6.62
			c0.055-0.388-0.075-0.777-0.352-1.056c-0.277-0.275-0.668-0.406-1.055-0.351c-1.22,0.175-5.3,0.853-6.621,2.173
			c-1.49,1.491-1.604,3.844-0.34,5.467l0.31,6.285c-0.687,0.729-1.378,1.566-2.027,2.451l-1.296-1.295
			c-0.485-0.485-1.271-0.485-1.756,0c-0.484,0.484-0.484,1.271,0,1.756l1.644,1.645c-0.311,0.51-0.599,1.021-0.856,1.521
			c-0.459,0.895-0.8,1.713-1.024,2.45l-0.735-0.733c-0.485-0.486-1.271-0.485-1.756,0c-0.485,0.485-0.485,1.271-0.001,1.756
			l5.855,5.855c0.485,0.484,1.271,0.484,1.756-0.001c0.485-0.485,0.485-1.272,0.001-1.757l-0.734-0.734
			c0.737-0.223,1.555-0.565,2.45-1.023c0.501-0.258,1.012-0.547,1.522-0.855l1.639,1.639c0.486,0.485,1.271,0.485,1.756,0
			c0.485-0.485,0.485-1.271,0-1.756l-1.292-1.292c0.887-0.649,1.724-1.341,2.452-2.027l6.286,0.309
			c1.623,1.265,3.976,1.151,5.467-0.339c1.321-1.322,1.998-5.401,2.172-6.622C-16.816,250.881-16.947,250.491-17.224,250.213
			L-17.224,250.213z"/>
	</g>
	<path opacity="0.25" fill="#800000" d="M13.601,205.924c-5.327-5.327-13.993-5.327-19.32,0c-5.326,5.325-5.326,13.993,0,19.318
		c5.327,5.327,13.993,5.327,19.32,0C18.928,219.917,18.928,211.249,13.601,205.924L13.601,205.924z M1.892,217.632
		c-1.129-1.13-1.129-2.968,0-4.098c1.13-1.13,2.969-1.13,4.099,0s1.13,2.968,0,4.099C4.861,218.762,3.022,218.762,1.892,217.632
		L1.892,217.632z"/>
	<path opacity="0.25" fill="#800000" d="M59.728,177.36l-17.564-17.562c-0.485-0.485-1.271-0.485-1.756-0.001L22.845,177.36
		c-0.486,0.485-0.485,1.271,0,1.755l3.512,3.513c0.485,0.484,1.271,0.486,1.757,0c1.13-1.13,2.968-1.13,4.098,0
		c1.129,1.13,1.129,2.968,0,4.098c-0.485,0.485-0.484,1.271,0,1.756l8.196,8.196c0.485,0.484,1.271,0.484,1.755,0l17.563-17.563
		c0.233-0.233,0.365-0.548,0.364-0.878C60.092,177.909,59.96,177.592,59.728,177.36L59.728,177.36z M37.48,177.36
		c-2.098-2.099-2.099-5.513,0-7.611c2.098-2.1,5.513-2.098,7.611,0c2.099,2.098,2.099,5.513,0,7.611
		C42.993,179.458,39.579,179.458,37.48,177.36L37.48,177.36z M38.945,187.604c-1.454-1.452-1.454-3.815,0-5.268
		c1.453-1.454,3.816-1.453,5.269,0c1.452,1.451,1.454,3.815,0,5.268C42.76,189.059,40.397,189.058,38.945,187.604L38.945,187.604z"
		/>
	<g opacity="0.25">
		<path fill="#800000" d="M16.892,68.454l-4.098-4.099l2.342-2.341l2.928,2.926c0.484,0.486,1.27,0.486,1.755,0
			c0.485-0.485,0.486-1.271,0-1.756l-3.805-3.806c-0.485-0.485-1.271-0.485-1.756,0.001l-3.22,3.219l-1.767-1.767
			c2.133-2.437,2.041-6.156-0.282-8.479c-2.422-2.422-6.36-2.422-8.782,0.001c-2.421,2.421-2.421,6.359,0.001,8.781
			c0.479,0.479,1.032,0.873,1.633,1.171l-9.3,10.597c-0.432,0.492-0.407,1.235,0.056,1.698l8.197,8.196
			c0.462,0.462,1.205,0.487,1.697,0.055l14.343-12.587c0.258-0.226,0.411-0.55,0.422-0.893
			C17.267,69.03,17.135,68.697,16.892,68.454L16.892,68.454z M7.525,66.112l-3.047-3.046l0.504-0.575
			c0.002-0.002,0.004-0.005,0.006-0.007l1.132-1.289l3.16,3.16L7.525,66.112z M12.327,70.914l-3.046-3.045l1.757-1.756l3.16,3.16
			L12.327,70.914z"/>
	</g>
	<g opacity="0.25">
		<path fill="#800000" d="M186.557,258.722l-8.523,0.001c0.12,0.844,0.506,1.624,1.121,2.237c0.748,0.748,1.744,1.16,2.803,1.161
			h18.122c1.994,0,3.648-1.479,3.923-3.399H186.557z"/>
	</g>
	<g opacity="0.25">
		<path fill="#800000" d="M204.611,255.325c0.935-0.002,1.695-0.763,1.694-1.697c0.001-0.455-0.176-0.883-0.497-1.204
			c-0.31-0.309-0.715-0.481-1.147-0.495l-27.289-0.001c-0.91,0.029-1.644,0.78-1.644,1.7c0,0.452,0.177,0.88,0.497,1.2
			c0.32,0.319,0.746,0.495,1.201,0.497h13.591H204.611z"/>
	</g>
	<g opacity="0.25">
		<path fill="#800000" d="M202.881,246.294c-0.748-0.749-1.744-1.161-2.802-1.161h-18.123c-1.992,0-3.646,1.479-3.923,3.396h25.969
			C203.882,247.686,203.494,246.907,202.881,246.294L202.881,246.294z"/>
	</g>
	<path opacity="0.25" fill="#800000" d="M124.78,182.87c3.376-4.142,3.136-10.27-0.723-14.13c-3.858-3.857-9.987-4.1-14.129-0.722
		c-1.654-0.922-3.786-0.682-5.19,0.722c-1.452,1.453-1.658,3.684-0.624,5.358l14.586,14.585c1.676,1.035,3.906,0.828,5.357-0.624
		C125.46,186.657,125.7,184.524,124.78,182.87L124.78,182.87z"/>
	<path opacity="0.25" fill="#800000" d="M112.841,192.198l3.663-2.197l-13.707-13.707l-2.198,3.662
		c-0.293,0.489-0.216,1.116,0.187,1.518l10.539,10.538C111.728,192.415,112.353,192.492,112.841,192.198L112.841,192.198z"/>
	<g opacity="0.25">
		<path fill="#800000" d="M55.765,251.02c-1.312-3.168-3.199-5.996-5.612-8.41c-2.405-2.404-5.229-4.287-8.396-5.6
			c-0.628-0.26-1.349,0.039-1.61,0.668l-9.434,22.775c-0.19,0.46-0.085,0.99,0.268,1.343s0.882,0.458,1.343,0.269l18.488-7.659
			c0.004-0.002,0.008-0.004,0.012-0.005l4.276-1.771C55.727,252.368,56.025,251.648,55.765,251.02L55.765,251.02z M44.754,254.246
			c-0.1-0.212-0.236-0.41-0.411-0.584c-0.802-0.803-2.103-0.803-2.904-0.001c-0.583,0.583-0.742,1.429-0.478,2.157l-6.832,2.83
			l1.739-4.2c0.804,0.59,1.939,0.521,2.666-0.204c0.802-0.803,0.802-2.105,0-2.906c-0.32-0.322-0.721-0.513-1.138-0.576l2.734-6.604
			c3.537,2.045,6.437,4.945,8.487,8.487L44.754,254.246z"/>
	</g>
	<path opacity="0.25" fill="#800000" d="M43.472,251.047c-0.803,0.802-2.103,0.802-2.905,0s-0.802-2.102,0-2.904
		c0.803-0.803,2.104-0.803,2.905,0C44.274,248.943,44.274,250.245,43.472,251.047L43.472,251.047z"/>
	<path opacity="0.25" fill="#800000" d="M8.815,301.406l-17.497-17.498c-0.483-0.481-1.267-0.481-1.75,0l-1.75,1.751
		c-2.09,2.091-2.09,5.491,0.001,7.582l11.665,11.664c2.091,2.091,5.492,2.092,7.582,0.001l1.75-1.75
		C9.3,302.674,9.299,301.89,8.815,301.406L8.815,301.406z"/>
	<g opacity="0.25">
		<path fill="#800000" d="M-2.846,278.074l17.498,17.496c0.482,0.484,1.265,0.484,1.75,0l1.749-1.748
			c2.09-2.092,2.091-5.493,0-7.584l-1.457-1.457l-2.625,2.625c-0.483,0.482-1.267,0.482-1.75,0c-0.483-0.484-0.483-1.267,0-1.75
			l2.625-2.625l-1.75-1.749l-2.625,2.624c-0.483,0.484-1.266,0.484-1.75,0c-0.483-0.483-0.482-1.267,0-1.749l2.625-2.624
			l-1.75-1.751l-2.625,2.624c-0.483,0.484-1.266,0.484-1.75,0c-0.483-0.481-0.483-1.266,0-1.748l2.625-2.625l-1.459-1.458
			c-2.09-2.091-5.492-2.092-7.583,0l-1.75,1.75C-3.33,276.809-3.329,277.591-2.846,278.074L-2.846,278.074z"/>
	</g>
	<g opacity="0.25">
		<path fill="#800000" d="M12.287,297.385c-0.552-0.275-0.987-0.493-1.72-1.227l-0.001-0.002c-0.732-0.732-0.951-1.166-1.226-1.719
			c-0.315-0.63-0.673-1.346-1.689-2.361l0-0.002c-1.018-1.017-1.732-1.374-2.364-1.69c-0.551-0.274-0.987-0.493-1.719-1.226h0
			c-0.733-0.732-0.951-1.168-1.227-1.721c-0.315-0.63-0.673-1.344-1.688-2.36c0,0,0-0.001-0.001-0.002
			c-1.017-1.016-1.732-1.373-2.363-1.689c-0.551-0.275-0.987-0.493-1.72-1.227c0,0,0,0,0,0c-0.733-0.733-0.95-1.167-1.225-1.72h0
			c-0.307-0.611-1.049-0.857-1.66-0.554c-0.613,0.307-0.86,1.051-0.554,1.661c0.315,0.631,0.672,1.346,1.688,2.361l0.001,0.002
			c1.017,1.016,1.732,1.373,2.362,1.689c0.551,0.275,0.986,0.493,1.719,1.225c0.001,0,0.001,0,0.001,0.002
			c0.733,0.732,0.951,1.167,1.226,1.719c0.316,0.632,0.673,1.347,1.69,2.364l0,0c1.017,1.016,1.731,1.373,2.362,1.689
			c0.551,0.276,0.987,0.493,1.719,1.226H5.9c0.733,0.732,0.951,1.17,1.226,1.721c0.316,0.631,0.674,1.347,1.689,2.362l0.001,0.001
			c1.017,1.017,1.732,1.374,2.362,1.688c0.612,0.307,1.354,0.059,1.66-0.554C13.145,298.433,12.897,297.689,12.287,297.385
			L12.287,297.385z"/>
	</g>
	<g opacity="0.25">
		<path fill="#800000" d="M79.233,294.479c4.293-4.292,4.293-11.277,0-15.57l-0.865-0.864l-15.571,15.57l0.865,0.864
			C67.955,298.773,74.94,298.773,79.233,294.479L79.233,294.479z"/>
	</g>
	<g opacity="0.25">
		<path fill="#800000" d="M80.964,296.209c-3.215,3.216-7.665,4.46-11.837,3.736l6.935,6.934l15.571-15.57l-6.934-6.936
			C85.422,288.545,84.178,292.994,80.964,296.209L80.964,296.209z"/>
	</g>
	<path opacity="0.25" fill="#800000" d="M93.245,289.459c0.751-1.48,0.509-3.341-0.728-4.577c-0.747-0.747-1.72-1.13-2.7-1.152
		c-0.022-0.979-0.406-1.953-1.152-2.699c-0.746-0.746-1.72-1.129-2.699-1.151c-0.022-0.98-0.406-1.954-1.152-2.699
		c-1.238-1.238-3.097-1.479-4.578-0.729L93.245,289.459z"/>
	<g opacity="0.25">
		<path fill="#800000" d="M108.877,249.828l-1.701-1.7c-1.346-1.346-3.535-1.346-4.881,0c-1.345,1.346-1.346,3.535,0,4.881
			l0.271,0.271l-0.271,0.271c-1.345,1.346-1.345,3.535,0.001,4.881c1.345,1.345,3.534,1.346,4.88,0l1.701-1.701h1.703v-6.902
			H108.877z"/>
	</g>
	<g opacity="0.25">
		<path fill="#800000" d="M123.058,244.46c-2.086,0-5.506,1.483-10.177,4.411v8.817c4.672,2.929,8.09,4.411,10.177,4.411
			c4.864,0,8.821-3.957,8.821-8.819C131.878,248.416,127.92,244.46,123.058,244.46L123.058,244.46z"/>
	</g>
	<g opacity="0.25">
		<path fill="#800000" d="M163.52,298.649l-17.497-17.499c-0.483-0.482-1.267-0.482-1.75,0c-3.457,3.457-4.662,8.325-3.614,12.766
			c-0.278,0.025-0.548,0.146-0.761,0.358c-0.483,0.481-0.483,1.267,0,1.75l8.749,8.749c0.482,0.482,1.267,0.482,1.749-0.001
			c0.212-0.213,0.332-0.483,0.357-0.761c4.441,1.048,9.311-0.156,12.767-3.613C164.002,299.915,164.002,299.131,163.52,298.649
			L163.52,298.649z"/>
	</g>
	<g opacity="0.25">
		<path fill="#800000" d="M159.799,277.943c0-0.684-0.554-1.237-1.237-1.236c-0.954-0.001-2.262,0-3.5,1.236
			s-1.238,2.545-1.237,3.499c0,0.857-0.02,1.259-0.512,1.751c-0.483,0.481-0.483,1.266,0,1.748c0.482,0.484,1.266,0.484,1.749,0
			c1.238-1.236,1.237-2.545,1.237-3.499c0-0.858,0.021-1.258,0.512-1.75c0.492-0.491,0.893-0.512,1.75-0.513
			C159.245,279.181,159.799,278.627,159.799,277.943L159.799,277.943z"/>
	</g>
	<g opacity="0.25">
		<path fill="#800000" d="M163.882,282.026c0-0.684-0.554-1.238-1.237-1.238c-0.955,0-2.263,0-3.5,1.238
			c-1.237,1.235-1.238,2.544-1.237,3.499c0,0.857-0.021,1.258-0.512,1.749c-0.484,0.483-0.484,1.267,0,1.75
			c0.483,0.483,1.266,0.483,1.749,0c1.238-1.237,1.237-2.544,1.237-3.499c0-0.859,0.02-1.258,0.514-1.75
			c0.492-0.492,0.891-0.512,1.749-0.512C163.328,283.264,163.882,282.709,163.882,282.026L163.882,282.026z"/>
	</g>
	<g opacity="0.25">
		<path fill="#800000" d="M167.965,286.108c0-0.683-0.554-1.237-1.238-1.237c-0.955-0.001-2.262,0-3.5,1.237s-1.237,2.545-1.237,3.5
			c0.001,0.856-0.021,1.257-0.513,1.749c-0.481,0.483-0.481,1.267,0,1.749c0.483,0.484,1.268,0.483,1.751,0.001
			c1.237-1.237,1.237-2.545,1.237-3.499c0-0.858,0.021-1.259,0.513-1.751c0.492-0.492,0.891-0.511,1.75-0.512
			C167.41,287.347,167.964,286.793,167.965,286.108L167.965,286.108z"/>
	</g>
	<path opacity="0.25" fill="#800000" d="M63.074,216.601c0.885,2.655,2.728,5.474,5.189,7.935s5.28,4.303,7.935,5.188
		c2.997,0.999,5.509,0.688,7.073-0.876l8.625-8.625c1.564-1.564,1.876-4.076,0.877-7.073c-0.885-2.656-2.729-5.472-5.189-7.935
		c-2.462-2.461-5.279-4.303-7.935-5.189c-2.997-0.999-5.509-0.687-7.073,0.878l-8.625,8.625
		C62.386,211.093,62.075,213.604,63.074,216.601L63.074,216.601z M85.513,207.285c4.344,4.344,5.859,9.321,4.312,10.867
		c-1.547,1.547-6.522,0.032-10.867-4.312c-4.344-4.344-5.86-9.32-4.313-10.867S81.168,202.94,85.513,207.285L85.513,207.285z"/>
	<path opacity="0.25" fill="#800000" d="M85.341,213.668c-0.858,0.858-2.943,0.162-4.658-1.553c-1.715-1.714-2.41-3.8-1.553-4.658
		c0.858-0.857,2.944-0.162,4.658,1.553C85.503,210.725,86.198,212.811,85.341,213.668L85.341,213.668z"/>
	<path opacity="0.25" fill="#800000" d="M242.295,294.247l-3.22-3.22l3.22-3.221c0.592-0.593,0.593-1.553,0-2.146l-12.88-12.88
		c-0.594-0.593-1.554-0.593-2.146,0.001l-17.173,17.173c-0.595,0.593-0.593,1.554,0,2.146l12.879,12.881
		c0.594,0.593,1.553,0.593,2.146,0l1.073-1.074l3.221,3.222c0.593,0.592,1.553,0.592,2.146-0.002l10.733-10.731
		C242.888,295.8,242.888,294.84,242.295,294.247L242.295,294.247z M220.828,292.1c-0.594,0.594-1.554,0.594-2.146,0
		c-0.593-0.592-0.593-1.553,0-2.146l4.294-4.293c0.593-0.593,1.554-0.593,2.146,0s0.593,1.553,0,2.146L220.828,292.1z
		 M225.121,296.395c-0.592,0.592-1.553,0.592-2.146,0c-0.592-0.593-0.592-1.554,0.001-2.147l4.293-4.293
		c0.593-0.593,1.554-0.593,2.146,0c0.592,0.593,0.593,1.553,0,2.146L225.121,296.395z M236.928,288.88l-10.733-10.732l2.147-2.146
		l10.733,10.733L236.928,288.88z M230.487,303.907l-2.146-2.147l8.586-8.586l2.147,2.147L230.487,303.907z"/>
	<g opacity="0.25">
		<path fill="#800000" d="M166.814,218.377l-4.098-4.099l2.341-2.343l2.928,2.928c0.484,0.485,1.271,0.485,1.756,0
			c0.485-0.484,0.485-1.271,0-1.756l-3.805-3.806c-0.486-0.485-1.271-0.485-1.756,0l-3.221,3.22l-1.767-1.768
			c2.134-2.436,2.041-6.155-0.281-8.478c-2.423-2.421-6.361-2.421-8.782,0c-2.422,2.422-2.422,6.36,0,8.782
			c0.479,0.478,1.033,0.872,1.633,1.171l-9.3,10.597c-0.431,0.492-0.406,1.234,0.056,1.698l8.197,8.195
			c0.463,0.464,1.205,0.487,1.698,0.056l14.343-12.587c0.257-0.226,0.41-0.55,0.422-0.893S167.057,218.619,166.814,218.377
			L166.814,218.377z M157.447,216.034l-3.046-3.046l0.503-0.574c0.002-0.002,0.004-0.006,0.007-0.007l1.131-1.289l3.161,3.16
			L157.447,216.034z M162.248,220.837l-3.044-3.046l1.755-1.756l3.161,3.16L162.248,220.837z"/>
	</g>
</g>
</svg>
