<svg xmlns="http://www.w3.org/2000/svg" width="300" height="300" viewBox="-49.5 9.5 300 300"><path fill="#FEC0CB" d="M-49.5 9.5h300v300h-300z"/><path opacity=".25" fill="maroon" d="M114.065 40.778a3.547 3.547 0 0 0 5.009 0l1.072-1.071-1.345-1.345-7.152.001 2.416 2.415zM127.845 27.867c-.363-2.516-1.699-5.039-3.765-7.104-2.065-2.066-4.588-3.404-7.104-3.767-2.147-.31-4.043.137-5.4 1.259l15.01 15.01c1.122-1.355 1.568-3.251 1.259-5.398zM109.499 29.06v6.266h6.266l-6.266-6.266zM104.047 30.76l2.416 2.416v-7.152l-1.344-1.344-1.072 1.071a3.547 3.547 0 0 0 0 5.009zM106.177 21.442l.017.017 17.173 17.172.016.018a1.519 1.519 0 0 0 2.129-2.163l-17.174-17.174a1.517 1.517 0 0 0-2.161 2.13zM50.377 32.563l.009-.01a1.859 1.859 0 0 0 .102-.116l.01-.01 5.484-7.062a1.464 1.464 0 0 0-.121-1.933l-9.463-9.463a1.464 1.464 0 0 0-1.933-.12l-7.062 5.483-.01.009c-.024.019-.046.039-.069.059l-.047.043-.01.009c-3.248 3.247-3.552 8.342-.923 11.963l-3.5 3.5-1.728-1.727a1.463 1.463 0 1 0-2.07 2.071l5.523 5.522a1.463 1.463 0 1 0 2.07-2.07l-1.727-1.727 3.5-3.5c3.622 2.631 8.718 2.327 11.965-.921zm-9.866-11.936l4.73-3.673 7.636 7.636-3.673 4.73-8.693-8.693zM132.71 100.28a1.24 1.24 0 0 0-1.056-.351c-1.22.175-5.299.851-6.621 2.173a4.133 4.133 0 0 0-1.149 3.632l-2.701-.134c.609-.968.878-1.878.827-2.776-.047-.838-.367-1.55-.814-2.185l6.247-3.364a1.242 1.242 0 1 0-1.176-2.188l-3.968 2.136 2.136-3.966a1.24 1.24 0 0 0-.504-1.682 1.244 1.244 0 0 0-1.683.504l-3.364 6.248c-.634-.447-1.346-.768-2.185-.814-.898-.05-1.808.218-2.776.827l-.133-2.702a4.137 4.137 0 0 0 3.633-1.149c1.321-1.321 1.997-5.401 2.172-6.621a1.24 1.24 0 0 0-1.406-1.406c-1.22.175-5.299.852-6.621 2.173a4.143 4.143 0 0 0-.34 5.466l.31 6.285a25.993 25.993 0 0 0-2.028 2.453l-1.296-1.296a1.24 1.24 0 1 0-1.756 1.756l1.644 1.644a24.085 24.085 0 0 0-.855 1.522c-.46.896-.801 1.713-1.025 2.451l-.734-.734a1.242 1.242 0 0 0-1.756 1.756l5.854 5.854a1.242 1.242 0 1 0 1.756-1.756l-.734-.734c.738-.224 1.555-.565 2.451-1.024.5-.258 1.012-.546 1.522-.855l1.639 1.639a1.242 1.242 0 1 0 1.756-1.757l-1.291-1.291a25.965 25.965 0 0 0 2.451-2.029l6.286.311a4.144 4.144 0 0 0 5.466-.34c1.321-1.321 1.998-5.401 2.173-6.621a1.247 1.247 0 0 0-.351-1.055zM163.534 55.99c-5.327-5.326-13.993-5.326-19.319 0-5.327 5.326-5.327 13.994 0 19.32 5.326 5.326 13.993 5.326 19.319 0 5.326-5.327 5.326-13.994 0-19.32zm-11.709 11.708a2.9 2.9 0 0 1 0-4.097 2.9 2.9 0 0 1 4.098 0 2.902 2.902 0 0 1 .001 4.098 2.901 2.901 0 0 1-4.099-.001zM209.662 27.427L192.096 9.863a1.242 1.242 0 0 0-1.755 0l-17.562 17.563a1.242 1.242 0 0 0-.001 1.756l3.514 3.513a1.242 1.242 0 0 0 1.756 0 2.901 2.901 0 0 1 4.097 0 2.899 2.899 0 0 1 0 4.098 1.245 1.245 0 0 0 0 1.757l8.197 8.197a1.242 1.242 0 0 0 1.756-.001l17.562-17.563a1.245 1.245 0 0 0 .002-1.756zm-22.248 0a5.387 5.387 0 0 1 0-7.611 5.388 5.388 0 0 1 7.611 0c2.098 2.099 2.098 5.513 0 7.611s-5.512 2.098-7.611 0zm1.463 10.244a3.731 3.731 0 0 1 0-5.269 3.731 3.731 0 0 1 5.27 0 3.731 3.731 0 0 1 0 5.269 3.73 3.73 0 0 1-5.27 0zM66.875 68.078a3.87 3.87 0 0 1-.063.067l-.104.111-.069.077a2.642 2.642 0 0 0-.085.096l-.067.078-.073.087a3.733 3.733 0 0 0-.128.162c-.022.026-.041.053-.061.079-.021.025-.041.052-.059.076a4.49 4.49 0 0 1-.108.15c-.019.026-.035.051-.052.077l-.047.068-.049.076a1.538 1.538 0 0 0-.088.141l-.039.062-.044.075c-.011.019-.022.039-.034.057l-.042.076-.029.053a3.217 3.217 0 0 0-.042.078c-.009.016-.018.031-.025.047a2.136 2.136 0 0 0-.042.082l-.022.041-.045.091a5.709 5.709 0 0 0-.07.14l-.002.004-.001.002v.001a.811.811 0 0 0-.031.067l-.019.042c-.013.032-.024.066-.035.1-.003.01-.004.02-.008.03a1.064 1.064 0 0 0-.02.081l-.005.03a.857.857 0 0 0-.015.11l-.005.096v.016c0 .038.002.076.005.113l.001.008a.781.781 0 0 0 .014.097l.008.038c.005.022.009.044.016.065.004.015.007.03.013.044.006.021.013.04.021.061l.016.042c.014.032.027.063.043.093a.307.307 0 0 0 .017.031l.04.066.021.031a.663.663 0 0 0 .049.069l.017.021c.025.03.051.06.078.088l.007.005 7.548 7.548a1.231 1.231 0 0 0 1.974-.32c.274-.548.491-.982 1.221-1.712.73-.729 1.164-.946 1.713-1.222.629-.314 1.342-.671 2.355-1.685 1.013-1.013 1.37-1.725 1.684-2.354.275-.549.492-.983 1.222-1.713.729-.73 1.163-.947 1.713-1.221.569-.285 1.209-.606 2.077-1.417a9.54 9.54 0 0 0 .277-.267c1.014-1.012 1.369-1.725 1.683-2.354.275-.549.492-.983 1.223-1.713.729-.73 1.164-.947 1.713-1.222l.007-.004c.026-.013.051-.028.075-.042l.035-.02c.019-.012.037-.026.055-.039l.048-.035.021-.019.014-.012.003-.002.058-.051.006-.006a.438.438 0 0 0 .021-.023l.015-.017c.013-.014.027-.028.039-.043l.007-.008a.333.333 0 0 0 .024-.032h.001l.038-.052v-.001-.001l.034-.054h.001l.026-.044v-.001l.032-.063v-.001l.001-.001.017-.038.002-.001a.774.774 0 0 0 .026-.067l.001-.003v-.002l.014-.038v-.001l.001-.001.018-.065v-.002l.001-.003.01-.042.001-.002v-.002l.011-.06v-.002-.001a.934.934 0 0 0 .008-.052v-.001-.002c.002-.018.004-.036.004-.053v-.003-.003c.002-.018.002-.038.003-.057v-.003-.002l-.001-.048.001-.003v-.003c-.001-.021-.001-.04-.004-.06v-.002-.002a.738.738 0 0 0-.005-.049l-.001-.003v-.003l-.008-.057v-.002c-.003-.02-.008-.038-.012-.056l-.001-.004-.001-.004-.011-.048-.001-.001V60.6l-.021-.066-.002-.006-.001-.006a.265.265 0 0 0-.011-.03l-.001-.002v-.002l-.033-.078-.003-.005a.128.128 0 0 0-.012-.028l-.001-.001c-.012-.024-.026-.047-.04-.072a.015.015 0 0 1-.004-.008c-.002-.001-.003-.004-.004-.007l-.013-.02v-.002l-.001-.001c-.011-.018-.023-.034-.035-.051-.002-.001-.003-.003-.004-.006-.002-.002-.004-.003-.005-.006l-.028-.037v-.001l-.001-.002c-.008-.011-.019-.021-.028-.032l-.005-.006-.005-.005a.666.666 0 0 0-.043-.048l-.001-.002-.006-.007-7.556-7.555a1.232 1.232 0 0 0-1.423-.23c-.628.313-1.341.67-2.354 1.683-1.013 1.013-1.369 1.726-1.684 2.354-.275.549-.492.983-1.222 1.713-.73.73-1.164.947-1.713 1.222-.629.314-1.342.67-2.355 1.684-1.013 1.013-1.37 1.725-1.684 2.354-.274.549-.491.983-1.221 1.713s-1.165.947-1.713 1.221c-.629.315-1.341.671-2.354 1.685l-.009.009a1.197 1.197 0 0 0-.179.162zm9.102-1.173c.314-.628.671-1.341 1.684-2.354 1.013-1.013 1.725-1.369 2.354-1.683.549-.275.983-.492 1.714-1.222.729-.73.946-1.164 1.221-1.713.314-.629.671-1.341 1.684-2.354.339-.339.644-.603.924-.818l1.766 1.765c-.274.182-.571.42-.947.796-.731.73-.947 1.164-1.221 1.713-.315.629-.671 1.342-1.684 2.354-1.013 1.013-1.726 1.369-2.354 1.684-.549.274-.983.492-1.713 1.222-.73.73-.947 1.164-1.222 1.713-.314.629-.67 1.341-1.684 2.354-1.013 1.013-1.725 1.369-2.354 1.684-.549.275-.982.492-1.713 1.222a5.918 5.918 0 0 0-.795.947l-1.766-1.766c.215-.279.479-.585.818-.924 1.013-1.013 1.725-1.369 2.354-1.684.549-.275.983-.491 1.713-1.222.73-.731.946-1.164 1.221-1.714zM205.697 101.086a25.753 25.753 0 0 0-5.613-8.41 25.73 25.73 0 0 0-8.395-5.599 1.233 1.233 0 0 0-1.61.667l-9.434 22.774a1.234 1.234 0 0 0 1.611 1.611l18.488-7.658.012-.004 4.276-1.771a1.23 1.23 0 0 0 .665-1.61zm-11.01 3.227a2.054 2.054 0 0 0-3.793 1.572l-6.832 2.831 1.74-4.2a2.054 2.054 0 1 0 1.527-3.688l2.734-6.603a23.164 23.164 0 0 1 8.487 8.488l-3.863 1.6z"/><path opacity=".25" fill="maroon" d="M193.405 101.113a2.053 2.053 0 1 1-2.904-2.904 2.053 2.053 0 0 1 2.904 2.904zM158.749 151.473l-17.497-17.497a1.237 1.237 0 0 0-1.749 0l-1.75 1.75a5.367 5.367 0 0 0 0 7.583l11.665 11.664a5.367 5.367 0 0 0 7.583 0l1.75-1.75a1.24 1.24 0 0 0-.002-1.75zM147.087 128.141l17.497 17.498a1.237 1.237 0 0 0 1.749 0l1.749-1.749a5.368 5.368 0 0 0 .001-7.583l-1.458-1.458-2.624 2.625a1.238 1.238 0 0 1-1.749-1.75l2.624-2.625-1.75-1.75-2.625 2.625a1.237 1.237 0 1 1-1.749-1.75l2.625-2.625-1.751-1.75-2.624 2.625a1.237 1.237 0 1 1-1.749-1.75l2.624-2.624-1.458-1.458a5.367 5.367 0 0 0-7.583 0l-1.749 1.749a1.236 1.236 0 0 0 0 1.75zM162.219 147.45c-.551-.274-.986-.492-1.72-1.226-.733-.732-.952-1.167-1.226-1.72-.315-.63-.673-1.345-1.688-2.361l-.002-.001c-1.017-1.018-1.731-1.375-2.364-1.69-.551-.275-.986-.493-1.719-1.226-.733-.733-.951-1.168-1.227-1.72-.314-.63-.672-1.345-1.688-2.362v-.001c-1.017-1.018-1.732-1.375-2.363-1.69-.551-.275-.987-.494-1.72-1.226l-.001-.001c-.732-.732-.95-1.167-1.225-1.718l-.001-.001a1.237 1.237 0 1 0-2.214 1.107c.316.63.674 1.346 1.69 2.362v.001c1.017 1.017 1.732 1.373 2.362 1.689.551.276.987.493 1.719 1.225l.001.002c.733.732.95 1.168 1.226 1.72.316.63.674 1.347 1.69 2.362v.001c1.017 1.017 1.731 1.374 2.362 1.69.553.275.987.491 1.72 1.226h.001c.733.733.951 1.169 1.227 1.72.316.63.673 1.346 1.689 2.363l.001.001c1.016 1.015 1.731 1.374 2.362 1.688a1.234 1.234 0 0 0 1.659-.554 1.234 1.234 0 0 0-.551-1.66zM229.166 144.546c4.293-4.292 4.293-11.278 0-15.571l-.864-.864-15.572 15.57.866.865c4.293 4.293 11.277 4.294 15.57 0z"/><path fill="maroon" d="M230.896 146.276c-3.215 3.214-7.664 4.459-11.836 3.734l6.934 6.936 15.572-15.572-6.936-6.935c.725 4.172-.518 8.623-3.734 11.837zM243.179 139.526a3.953 3.953 0 0 0-.728-4.578 3.93 3.93 0 0 0-2.699-1.152 3.932 3.932 0 0 0-3.851-3.851 3.934 3.934 0 0 0-1.152-2.699 3.953 3.953 0 0 0-4.578-.728l13.008 13.008zM213.007 66.667c.886 2.655 2.729 5.472 5.189 7.934 2.461 2.461 5.278 4.303 7.935 5.19 2.997.998 5.51.687 7.073-.877l8.624-8.625c1.564-1.564 1.877-4.077.877-7.073-.885-2.655-2.727-5.473-5.188-7.934-2.463-2.461-5.28-4.304-7.935-5.19-2.996-.998-5.51-.687-7.074.877l-8.625 8.625c-1.565 1.564-1.875 4.076-.876 7.073zm22.438-9.315c4.346 4.345 5.859 9.321 4.313 10.868-1.548 1.546-6.523.031-10.866-4.313-4.346-4.344-5.861-9.32-4.313-10.867 1.548-1.548 6.523-.033 10.866 4.312z" opacity=".25"/><path opacity=".25" fill="maroon" d="M235.274 63.734c-.858.857-2.943.162-4.658-1.553-1.715-1.714-2.41-3.8-1.553-4.658.856-.857 2.942-.162 4.657 1.552 1.717 1.716 2.411 3.802 1.554 4.659zM200.299 182.485l.01-.009.043-.047c.02-.023.041-.045.059-.068a.047.047 0 0 0 .01-.011l5.483-7.062a1.464 1.464 0 0 0-.12-1.933l-9.463-9.462a1.463 1.463 0 0 0-1.933-.121l-7.062 5.483-.01.009a.955.955 0 0 0-.069.06.47.47 0 0 0-.047.042l-.009.008c-3.249 3.249-3.553 8.343-.922 11.963l-3.501 3.5-1.727-1.726a1.464 1.464 0 0 0-2.07 2.07l5.523 5.523a1.465 1.465 0 0 0 2.071-2.071l-1.726-1.726 3.499-3.5c3.618 2.63 8.714 2.325 11.961-.922zm-9.866-11.936l4.73-3.674 7.638 7.638-3.674 4.729-8.694-8.693zM216.796 218c-.021.023-.04.045-.062.067a5.56 5.56 0 0 1-.104.11 1.78 1.78 0 0 1-.069.077 2.507 2.507 0 0 0-.084.096l-.068.079-.072.087-.064.079-.065.081-.06.08a1.744 1.744 0 0 0-.059.075c-.021.027-.039.053-.057.078l-.053.072c-.018.026-.034.052-.052.076l-.047.069c-.018.025-.032.05-.05.075a.913.913 0 0 1-.043.065c-.016.025-.029.051-.044.075-.015.02-.026.041-.039.062l-.043.075-.034.058-.043.075-.03.054c-.014.026-.027.052-.042.077-.008.016-.017.032-.023.047-.016.028-.029.056-.043.082-.008.014-.016.027-.022.041l-.045.09c-.006.01-.009.021-.015.03-.02.036-.038.073-.057.111l-.002.004v.002l-.001.001c-.004.006-.006.012-.009.015-.008.018-.016.034-.023.053l-.019.042c-.013.031-.023.066-.034.101a1.068 1.068 0 0 0-.029.11l-.004.03c-.005.027-.01.056-.013.084l-.002.025a1.011 1.011 0 0 0-.005.096v.016c0 .038.002.075.005.114l.001.008c.004.033.008.064.014.097l.009.038.015.065.014.045.021.06c.005.016.011.029.017.043.014.031.027.062.044.092.005.012.01.021.017.032l.039.065.021.031a.79.79 0 0 0 .049.069l.018.021a.916.916 0 0 0 .084.092l7.549 7.549a1.235 1.235 0 0 0 1.713.029c.105-.099.194-.217.262-.35.273-.549.49-.981 1.221-1.712.729-.73 1.163-.947 1.712-1.223.63-.314 1.342-.671 2.354-1.684 1.014-1.013 1.37-1.726 1.685-2.354.274-.549.491-.983 1.222-1.713.729-.729 1.164-.946 1.714-1.222.569-.285 1.209-.607 2.076-1.417.091-.084.182-.171.276-.267h.001c1.013-1.014 1.368-1.726 1.684-2.354.275-.55.491-.983 1.222-1.713.729-.729 1.164-.946 1.713-1.221.002-.004.004-.004.007-.005l.074-.042.035-.021c.021-.012.037-.025.056-.039l.049-.035.02-.018.014-.013c.002 0 .002-.001.004-.003l.057-.051a.023.023 0 0 0 .007-.007.12.12 0 0 0 .021-.024l.016-.016c.014-.015.027-.028.039-.044a.033.033 0 0 0 .006-.008c.009-.011.018-.021.025-.032l.001-.002c.013-.018.025-.035.039-.052v-.001s.002 0 0-.001c.014-.017.022-.034.034-.054v-.001a.243.243 0 0 0 .026-.044h.002l.03-.063.001-.002s.002 0 .002-.002l.017-.037.001-.001h.001a.897.897 0 0 0 .024-.067l.003-.003v-.002c.005-.012.009-.025.015-.037v-.002l.018-.065v-.003l.003-.004.009-.043.001-.001v.003a.715.715 0 0 0 .011-.061v-.003-.001a.987.987 0 0 0 .01-.053v-.002l.003-.055c0-.001.002-.002 0-.002.002-.001 0-.002 0-.004a.356.356 0 0 0 .004-.057l.001-.002-.001-.002v-.049-.003-.004c-.001-.02-.001-.04-.004-.06v-.003-.003l-.005-.049-.001-.002v-.004c-.002-.02-.006-.037-.009-.057v-.002-.002l-.012-.056-.001-.004-.001-.003c-.003-.018-.008-.033-.011-.049l-.001-.002v-.001a1.7 1.7 0 0 0-.022-.066c0-.003-.001-.004-.003-.006v-.007a.134.134 0 0 0-.012-.03v-.002-.002l-.035-.078c0-.001 0-.003-.002-.005a.136.136 0 0 0-.01-.021l-.002-.006-.002-.002a.992.992 0 0 0-.04-.071l-.003-.008c-.002-.001-.004-.004-.005-.007l-.013-.02-.001-.003-.001-.001-.035-.052a.009.009 0 0 1-.004-.007c-.002-.001-.005-.004-.005-.006l-.029-.036v-.001l-.001-.002c-.009-.012-.018-.021-.028-.032l-.004-.007c-.003-.001-.004-.002-.005-.004-.016-.018-.028-.033-.045-.05v-.001l-.007-.007-7.556-7.556a1.233 1.233 0 0 0-1.424-.231c-.628.315-1.34.672-2.354 1.685-1.013 1.012-1.369 1.725-1.684 2.354-.274.549-.491.983-1.222 1.714-.729.729-1.164.946-1.714 1.221-.629.315-1.34.672-2.354 1.686-1.014 1.013-1.369 1.725-1.684 2.353-.275.55-.492.984-1.223 1.715-.73.729-1.164.946-1.713 1.221-.629.314-1.341.672-2.354 1.685-.004.003-.007.007-.01.008l-.176.18zm9.103-1.172c.313-.629.67-1.342 1.683-2.354s1.727-1.369 2.354-1.684c.55-.275.983-.492 1.714-1.223.729-.729.946-1.163 1.222-1.712.314-.63.67-1.342 1.684-2.355.339-.338.644-.603.925-.817l1.765 1.765a6.094 6.094 0 0 0-.946.797c-.73.73-.947 1.164-1.223 1.713-.312.629-.67 1.341-1.683 2.354-1.013 1.014-1.726 1.37-2.354 1.686-.549.273-.983.49-1.714 1.221s-.946 1.164-1.222 1.713c-.314.629-.67 1.343-1.684 2.354-1.012 1.014-1.725 1.37-2.354 1.686-.549.273-.981.49-1.713 1.221a6.007 6.007 0 0 0-.795.947l-1.767-1.767c.215-.279.479-.583.817-.923 1.015-1.014 1.727-1.369 2.355-1.685.549-.275.983-.49 1.713-1.222.732-.732.948-1.166 1.223-1.715zM36.635 108.799l-8.524.001c.12.844.507 1.624 1.121 2.238a3.947 3.947 0 0 0 2.803 1.161h18.122a3.968 3.968 0 0 0 3.923-3.399l-17.445-.001zM54.689 105.402a1.697 1.697 0 0 0 1.196-2.901 1.686 1.686 0 0 0-1.147-.495l-27.289-.001a1.701 1.701 0 0 0-1.147 2.899c.321.321.746.497 1.2.498h27.187zM52.959 96.372a3.94 3.94 0 0 0-2.803-1.163H32.034a3.972 3.972 0 0 0-3.923 3.396l25.969.001a3.928 3.928 0 0 0-1.121-2.234zM-25.143 32.948c3.378-4.142 3.138-10.271-.722-14.13-3.859-3.858-9.988-4.099-14.13-.721a4.353 4.353 0 0 0-5.19.721 4.354 4.354 0 0 0-.624 5.358l14.585 14.585a4.352 4.352 0 0 0 5.358-.624 4.35 4.35 0 0 0 .723-5.189zM-37.082 42.277l3.664-2.198-13.707-13.707-2.198 3.664a1.242 1.242 0 0 0 .187 1.517l10.538 10.538a1.242 1.242 0 0 0 1.516.186zM-35.869 190.711a3.547 3.547 0 0 0 5.009 0l1.071-1.072-1.345-1.343h-7.151l2.416 2.415zM-22.087 177.8c-.363-2.515-1.701-5.037-3.766-7.104-2.065-2.066-4.589-3.403-7.104-3.766-2.147-.31-4.043.137-5.399 1.259l15.01 15.01c1.122-1.356 1.568-3.252 1.259-5.399zM-40.434 178.993l.001 6.267 6.265-.001-6.266-6.266zM-45.886 180.694l2.416 2.415v-7.153l-1.345-1.343-1.071 1.072a3.546 3.546 0 0 0 0 5.009zM-43.757 171.375l.018.016 17.172 17.172.016.018c.593.575 1.542.57 2.13-.018.59-.591.59-1.552-.001-2.144l-17.174-17.174a1.518 1.518 0 0 0-2.161 2.13zM-41.044 99.906l-1.701-1.701a3.454 3.454 0 0 0-4.88 0 3.454 3.454 0 0 0 0 4.881l.271.271-.271.271a3.454 3.454 0 0 0 0 4.88 3.454 3.454 0 0 0 4.88 0l1.701-1.701h1.703v-6.903l-1.703.002zM-26.864 94.538c-2.086 0-5.505 1.482-10.177 4.411v8.817c4.672 2.927 8.091 4.412 10.177 4.411 4.863 0 8.82-3.957 8.82-8.82s-3.957-8.819-8.82-8.819zM13.598 148.727L-3.9 131.229a1.238 1.238 0 0 0-1.75 0c-3.456 3.457-4.661 8.324-3.614 12.766a1.236 1.236 0 0 0-.76 2.107l8.749 8.748a1.239 1.239 0 0 0 2.107-.76c4.441 1.046 9.31-.158 12.766-3.615a1.235 1.235 0 0 0 0-1.748zM9.877 128.021c0-.683-.554-1.237-1.237-1.236-.955-.001-2.262 0-3.499 1.236-1.237 1.237-1.238 2.545-1.237 3.5 0 .858-.021 1.258-.513 1.75a1.238 1.238 0 0 0 1.751 1.75c1.237-1.237 1.237-2.545 1.237-3.5 0-.858.02-1.257.512-1.749s.891-.513 1.75-.513c.682 0 1.236-.554 1.236-1.238zM13.959 132.104c0-.683-.554-1.237-1.238-1.237-.954-.001-2.262 0-3.499 1.237-1.237 1.236-1.238 2.544-1.237 3.499 0 .857-.021 1.258-.513 1.75a1.237 1.237 0 0 0 1.75 1.75c1.238-1.238 1.237-2.545 1.237-3.5 0-.858.021-1.257.513-1.75.492-.492.891-.512 1.75-.512.683 0 1.237-.554 1.237-1.237zM18.042 136.187c0-.684-.554-1.238-1.237-1.238-.954 0-2.263 0-3.5 1.237s-1.238 2.545-1.237 3.5c.001.858-.02 1.258-.512 1.75a1.237 1.237 0 1 0 1.75 1.75c1.238-1.238 1.237-2.546 1.238-3.5 0-.858.02-1.257.512-1.75.492-.492.892-.512 1.75-.512.682 0 1.236-.554 1.236-1.237zM92.373 144.326l-3.221-3.22 3.22-3.221a1.518 1.518 0 0 0 .001-2.146l-12.881-12.88a1.517 1.517 0 0 0-2.146.001l-17.173 17.172a1.519 1.519 0 0 0 0 2.147l12.88 12.879a1.515 1.515 0 0 0 2.146 0l1.073-1.073 3.221 3.221a1.517 1.517 0 0 0 2.146 0l10.732-10.733a1.518 1.518 0 0 0 .002-2.147zm-21.467-2.148a1.517 1.517 0 1 1-2.146-2.147l4.293-4.292a1.517 1.517 0 1 1 2.146 2.146l-4.293 4.293zm4.293 4.294a1.517 1.517 0 1 1-2.146-2.146l4.294-4.294a1.519 1.519 0 0 1 2.146 2.147l-4.294 4.293zm11.806-7.514l-10.732-10.732 2.146-2.146 10.732 10.732-2.146 2.146zm-6.44 15.027l-2.146-2.147 8.586-8.586 2.146 2.147-8.586 8.586zM-17.224 250.213a1.25 1.25 0 0 0-1.055-.351c-1.22.175-5.3.853-6.621 2.173a4.134 4.134 0 0 0-1.149 3.633l-2.702-.133c.61-.969.877-1.879.828-2.777-.046-.839-.367-1.551-.814-2.185l6.247-3.362a1.243 1.243 0 0 0-1.177-2.19l-3.967 2.137 2.136-3.967a1.241 1.241 0 1 0-2.188-1.176l-3.363 6.246c-.634-.446-1.346-.768-2.185-.814-.898-.049-1.808.219-2.776.827l-.134-2.7a4.135 4.135 0 0 0 3.632-1.15c1.321-1.32 1.998-5.4 2.173-6.62a1.247 1.247 0 0 0-.352-1.056 1.25 1.25 0 0 0-1.055-.351c-1.22.175-5.3.853-6.621 2.173a4.145 4.145 0 0 0-.34 5.467l.31 6.285a26.211 26.211 0 0 0-2.027 2.451l-1.296-1.295a1.242 1.242 0 1 0-1.756 1.756l1.644 1.645a24.09 24.09 0 0 0-.856 1.521c-.459.895-.8 1.713-1.024 2.45l-.735-.733a1.242 1.242 0 0 0-1.757 1.756l5.855 5.855a1.242 1.242 0 0 0 1.757-1.758l-.734-.734c.737-.223 1.555-.565 2.45-1.023a25.927 25.927 0 0 0 1.522-.855l1.639 1.639a1.242 1.242 0 1 0 1.756-1.756l-1.292-1.292a25.997 25.997 0 0 0 2.452-2.027l6.286.309a4.143 4.143 0 0 0 5.467-.339c1.321-1.322 1.998-5.401 2.172-6.622a1.237 1.237 0 0 0-.35-1.057zM13.601 205.924c-5.327-5.327-13.993-5.327-19.32 0-5.326 5.325-5.326 13.993 0 19.318 5.327 5.327 13.993 5.327 19.32 0 5.327-5.325 5.327-13.993 0-19.318zM1.892 217.632a2.903 2.903 0 0 1 0-4.098c1.13-1.13 2.969-1.13 4.099 0s1.13 2.968 0 4.099a2.903 2.903 0 0 1-4.099-.001zM59.728 177.36l-17.564-17.562a1.242 1.242 0 0 0-1.756-.001L22.845 177.36a1.24 1.24 0 0 0 0 1.755l3.512 3.513a1.243 1.243 0 0 0 1.757 0 2.9 2.9 0 0 1 4.098 0 2.903 2.903 0 0 1 0 4.098 1.242 1.242 0 0 0 0 1.756l8.196 8.196a1.242 1.242 0 0 0 1.755 0l17.563-17.563c.233-.233.365-.548.364-.878a1.234 1.234 0 0 0-.362-.877zm-22.248 0a5.388 5.388 0 0 1 0-7.611 5.387 5.387 0 0 1 7.611 0 5.387 5.387 0 0 1 0 7.611 5.389 5.389 0 0 1-7.611 0zm1.465 10.244a3.726 3.726 0 0 1 5.269-5.268 3.727 3.727 0 0 1-5.269 5.268zM16.892 68.454l-4.098-4.099 2.342-2.341 2.928 2.926a1.24 1.24 0 1 0 1.755-1.756l-3.805-3.806a1.24 1.24 0 0 0-1.756.001l-3.22 3.219-1.767-1.767c2.133-2.437 2.041-6.156-.282-8.479a6.214 6.214 0 0 0-8.782.001 6.215 6.215 0 0 0 .001 8.781 6.21 6.21 0 0 0 1.633 1.171l-9.3 10.597a1.242 1.242 0 0 0 .056 1.698l8.197 8.196a1.242 1.242 0 0 0 1.697.055l14.343-12.587a1.241 1.241 0 0 0 .058-1.81zm-9.367-2.342l-3.047-3.046.504-.575.006-.007 1.132-1.289 3.16 3.16-1.755 1.757zm4.802 4.802l-3.046-3.045 1.757-1.756 3.16 3.16-1.871 1.641zM186.557 258.722l-8.523.001c.12.844.506 1.624 1.121 2.237a3.944 3.944 0 0 0 2.803 1.161h18.122a3.968 3.968 0 0 0 3.923-3.399h-17.446zM204.611 255.325a1.699 1.699 0 0 0 .05-3.396l-27.289-.001c-.91.029-1.644.78-1.644 1.7a1.7 1.7 0 0 0 1.698 1.697h27.185zM202.881 246.294a3.935 3.935 0 0 0-2.802-1.161h-18.123a3.972 3.972 0 0 0-3.923 3.396h25.969a3.934 3.934 0 0 0-1.121-2.235zM124.78 182.87c3.376-4.142 3.136-10.27-.723-14.13-3.858-3.857-9.987-4.1-14.129-.722a4.352 4.352 0 0 0-5.19.722 4.355 4.355 0 0 0-.624 5.358l14.586 14.585a4.352 4.352 0 0 0 5.357-.624 4.355 4.355 0 0 0 .723-5.189zM112.841 192.198l3.663-2.197-13.707-13.707-2.198 3.662a1.243 1.243 0 0 0 .187 1.518l10.539 10.538a1.24 1.24 0 0 0 1.516.186zM55.765 251.02a25.787 25.787 0 0 0-14.008-14.01 1.233 1.233 0 0 0-1.61.668l-9.434 22.775a1.233 1.233 0 0 0 1.611 1.612l18.488-7.659.012-.005 4.276-1.771c.627-.262.925-.982.665-1.61zm-11.011 3.226c-.1-.212-.236-.41-.411-.584a2.052 2.052 0 0 0-3.382 2.156l-6.832 2.83 1.739-4.2c.804.59 1.939.521 2.666-.204a2.056 2.056 0 0 0-1.138-3.482l2.734-6.604a23.154 23.154 0 0 1 8.487 8.487l-3.863 1.601z"/><path opacity=".25" fill="maroon" d="M43.472 251.047a2.054 2.054 0 1 1-2.905-2.906 2.054 2.054 0 0 1 2.905 2.906zM8.815 301.406l-17.497-17.498a1.242 1.242 0 0 0-1.75 0l-1.75 1.751a5.367 5.367 0 0 0 .001 7.582l11.665 11.664a5.366 5.366 0 0 0 7.582.001l1.75-1.75a1.236 1.236 0 0 0-.001-1.75zM-2.846 278.074l17.498 17.496a1.236 1.236 0 0 0 1.75 0l1.749-1.748a5.37 5.37 0 0 0 0-7.584l-1.457-1.457-2.625 2.625a1.238 1.238 0 0 1-1.75-1.75l2.625-2.625-1.75-1.749-2.625 2.624a1.236 1.236 0 1 1-1.75-1.749l2.625-2.624-1.75-1.751-2.625 2.624a1.236 1.236 0 1 1-1.75-1.748l2.625-2.625-1.459-1.458a5.367 5.367 0 0 0-7.583 0l-1.75 1.75a1.238 1.238 0 0 0 .002 1.749zM12.287 297.385c-.552-.275-.987-.493-1.72-1.227l-.001-.002c-.732-.732-.951-1.166-1.226-1.719-.315-.63-.673-1.346-1.689-2.361v-.002c-1.018-1.017-1.732-1.374-2.364-1.69-.551-.274-.987-.493-1.719-1.226-.733-.732-.951-1.168-1.227-1.721-.315-.63-.673-1.344-1.688-2.36l-.001-.002c-1.017-1.016-1.732-1.373-2.363-1.689-.551-.275-.987-.493-1.72-1.227-.733-.733-.95-1.167-1.225-1.72a1.238 1.238 0 1 0-2.214 1.107c.315.631.672 1.346 1.688 2.361l.001.002c1.017 1.016 1.732 1.373 2.362 1.689.551.275.986.493 1.719 1.225l.001.002c.733.732.951 1.167 1.226 1.719.316.632.673 1.347 1.69 2.364 1.017 1.016 1.731 1.373 2.362 1.689.551.276.987.493 1.719 1.226H5.9c.733.732.951 1.17 1.226 1.721.316.631.674 1.347 1.689 2.362l.001.001c1.017 1.017 1.732 1.374 2.362 1.688a1.235 1.235 0 0 0 1.66-.554 1.232 1.232 0 0 0-.551-1.656zM79.233 294.479c4.293-4.292 4.293-11.277 0-15.57l-.865-.864-15.571 15.57.865.864c4.293 4.294 11.278 4.294 15.571 0z"/><path fill="maroon" d="M80.964 296.209c-3.215 3.216-7.665 4.46-11.837 3.736l6.935 6.934 15.571-15.57-6.934-6.936c.723 4.172-.521 8.621-3.735 11.836zM93.245 289.459a3.952 3.952 0 0 0-.728-4.577 3.93 3.93 0 0 0-2.7-1.152 3.931 3.931 0 0 0-3.851-3.85 3.927 3.927 0 0 0-1.152-2.699 3.954 3.954 0 0 0-4.578-.729l13.009 13.007zM108.877 249.828l-1.701-1.7a3.455 3.455 0 0 0-4.881 0 3.456 3.456 0 0 0 0 4.881l.271.271-.271.271a3.456 3.456 0 0 0 .001 4.881 3.454 3.454 0 0 0 4.88 0l1.701-1.701h1.703v-6.902h-1.703zM123.058 244.46c-2.086 0-5.506 1.483-10.177 4.411v8.817c4.672 2.929 8.09 4.411 10.177 4.411 4.864 0 8.821-3.957 8.821-8.819-.001-4.864-3.959-8.82-8.821-8.82zM163.52 298.649l-17.497-17.499a1.24 1.24 0 0 0-1.75 0c-3.457 3.457-4.662 8.325-3.614 12.766a1.238 1.238 0 0 0-.761 2.108l8.749 8.749a1.238 1.238 0 0 0 2.106-.762c4.441 1.048 9.311-.156 12.767-3.613a1.238 1.238 0 0 0 0-1.749zM159.799 277.943c0-.684-.554-1.237-1.237-1.236-.954-.001-2.262 0-3.5 1.236s-1.238 2.545-1.237 3.499c0 .857-.02 1.259-.512 1.751a1.235 1.235 0 1 0 1.749 1.748c1.238-1.236 1.237-2.545 1.237-3.499 0-.858.021-1.258.512-1.75.492-.491.893-.512 1.75-.513a1.235 1.235 0 0 0 1.238-1.236zM163.882 282.026c0-.684-.554-1.238-1.237-1.238-.955 0-2.263 0-3.5 1.238-1.237 1.235-1.238 2.544-1.237 3.499 0 .857-.021 1.258-.512 1.749a1.236 1.236 0 1 0 1.749 1.75c1.238-1.237 1.237-2.544 1.237-3.499 0-.859.02-1.258.514-1.75.492-.492.891-.512 1.749-.512a1.237 1.237 0 0 0 1.237-1.237zM167.965 286.108c0-.683-.554-1.237-1.238-1.237-.955-.001-2.262 0-3.5 1.237s-1.237 2.545-1.237 3.5c.001.856-.021 1.257-.513 1.749a1.24 1.24 0 0 0 0 1.749 1.24 1.24 0 0 0 1.751.001c1.237-1.237 1.237-2.545 1.237-3.499 0-.858.021-1.259.513-1.751s.891-.511 1.75-.512a1.236 1.236 0 0 0 1.237-1.237zM63.074 216.601c.885 2.655 2.728 5.474 5.189 7.935s5.28 4.303 7.935 5.188c2.997.999 5.509.688 7.073-.876l8.625-8.625c1.564-1.564 1.876-4.076.877-7.073-.885-2.656-2.729-5.472-5.189-7.935-2.462-2.461-5.279-4.303-7.935-5.189-2.997-.999-5.509-.687-7.073.878l-8.625 8.625c-1.565 1.564-1.876 4.075-.877 7.072zm22.439-9.316c4.344 4.344 5.859 9.321 4.312 10.867-1.547 1.547-6.522.032-10.867-4.312-4.344-4.344-5.86-9.32-4.313-10.867s6.523-.033 10.868 4.312z" opacity=".25"/><path opacity=".25" fill="maroon" d="M85.341 213.668c-.858.858-2.943.162-4.658-1.553-1.715-1.714-2.41-3.8-1.553-4.658.858-.857 2.944-.162 4.658 1.553 1.715 1.715 2.41 3.801 1.553 4.658zM242.295 294.247l-3.22-3.22 3.22-3.221a1.518 1.518 0 0 0 0-2.146l-12.88-12.88a1.516 1.516 0 0 0-2.146.001l-17.173 17.173a1.515 1.515 0 0 0 0 2.146l12.879 12.881a1.517 1.517 0 0 0 2.146 0l1.073-1.074 3.221 3.222a1.517 1.517 0 0 0 2.146-.002l10.733-10.731a1.52 1.52 0 0 0 .001-2.149zm-21.467-2.147a1.517 1.517 0 1 1-2.146-2.146l4.294-4.293a1.517 1.517 0 1 1 2.146 2.146l-4.294 4.293zm4.293 4.295a1.519 1.519 0 0 1-2.145-2.147l4.293-4.293a1.517 1.517 0 1 1 2.146 2.146l-4.294 4.294zm11.807-7.515l-10.733-10.732 2.147-2.146 10.733 10.733-2.147 2.145zm-6.441 15.027l-2.146-2.147 8.586-8.586 2.147 2.147-8.587 8.586zM166.814 218.377l-4.098-4.099 2.341-2.343 2.928 2.928a1.242 1.242 0 1 0 1.756-1.756l-3.805-3.806a1.242 1.242 0 0 0-1.756 0l-3.221 3.22-1.767-1.768a6.217 6.217 0 0 0-.281-8.478 6.217 6.217 0 0 0-8.782 0 6.215 6.215 0 0 0 0 8.782 6.272 6.272 0 0 0 1.633 1.171l-9.3 10.597a1.244 1.244 0 0 0 .056 1.698l8.197 8.195a1.242 1.242 0 0 0 1.698.056l14.343-12.587c.257-.226.41-.55.422-.893s-.121-.675-.364-.917zm-9.367-2.343l-3.046-3.046.503-.574c.002-.002.004-.006.007-.007l1.131-1.289 3.161 3.16-1.756 1.756zm4.801 4.803l-3.044-3.046 1.755-1.756 3.161 3.16-1.872 1.642z"/></svg>