<svg xmlns="http://www.w3.org/2000/svg" width="300" height="300" viewBox="0 0 300 300"><path fill="#FEC0CB" d="M0 0h300v300H0V0z"/><path opacity=".25" fill="maroon" d="M163.564 31.278a3.549 3.549 0 0 0 5.01 0l1.072-1.071-1.346-1.345-7.152.001 2.416 2.415zm13.782-12.911c-.363-2.516-1.699-5.039-3.766-7.104-2.064-2.066-4.588-3.404-7.104-3.767-2.147-.31-4.043.137-5.4 1.259l15.01 15.01c1.122-1.355 1.568-3.251 1.26-5.398zm-18.347 1.193v6.266h6.267l-6.267-6.266zm-5.452 1.7l2.416 2.416v-7.152l-1.344-1.344-1.072 1.071a3.546 3.546 0 0 0 0 5.009zm2.13-9.318l.017.017 17.174 17.172.016.018a1.52 1.52 0 0 0 2.129-2.163L157.838 9.812a1.518 1.518 0 1 0-2.161 2.13zm-55.8 11.121l.009-.01a1.84 1.84 0 0 0 .102-.116l.01-.01 5.484-7.062a1.463 1.463 0 0 0-.121-1.933l-9.463-9.463a1.464 1.464 0 0 0-1.933-.12l-7.062 5.483-.01.009c-.024.019-.046.039-.069.059l-.047.043-.01.009c-3.248 3.247-3.552 8.342-.923 11.963l-3.5 3.5-1.728-1.727a1.465 1.465 0 0 0-2.071 2.07l5.523 5.522a1.465 1.465 0 0 0 2.07-2.07l-1.727-1.727 3.5-3.5c3.623 2.632 8.719 2.328 11.966-.92zm-9.866-11.936l4.73-3.673 7.636 7.636-3.673 4.73-8.693-8.693zM182.21 90.78a1.242 1.242 0 0 0-1.056-.351c-1.221.175-5.299.851-6.621 2.173a4.132 4.132 0 0 0-1.149 3.632l-2.7-.134c.608-.968.877-1.878.826-2.776-.047-.838-.367-1.55-.814-2.185l6.248-3.364a1.243 1.243 0 0 0-1.176-2.188l-3.969 2.136 2.137-3.966a1.24 1.24 0 0 0-.502-1.68l-.002-.001a1.245 1.245 0 0 0-1.684.504l-3.364 6.248c-.634-.447-1.346-.768-2.185-.814-.898-.05-1.809.218-2.776.827l-.133-2.702a4.14 4.14 0 0 0 3.633-1.149c1.321-1.321 1.997-5.401 2.173-6.621a1.241 1.241 0 0 0-1.406-1.406c-1.221.175-5.299.852-6.621 2.173a4.142 4.142 0 0 0-.34 5.466l.31 6.285a25.98 25.98 0 0 0-2.028 2.453l-1.296-1.296a1.242 1.242 0 1 0-1.756 1.756l1.644 1.644a23.872 23.872 0 0 0-.854 1.522c-.46.896-.802 1.713-1.024 2.451l-.734-.734a1.242 1.242 0 0 0-1.756 1.756l5.854 5.854a1.242 1.242 0 1 0 1.756-1.756l-.734-.734c.738-.224 1.556-.565 2.451-1.024.5-.258 1.012-.546 1.522-.855l1.64 1.639a1.242 1.242 0 1 0 1.756-1.756l-1.291-1.291a26.12 26.12 0 0 0 2.451-2.029l6.285.311a4.145 4.145 0 0 0 5.467-.34c1.32-1.321 1.998-5.401 2.172-6.621a1.263 1.263 0 0 0-.354-1.057zm30.824-44.29c-5.327-5.326-13.993-5.326-19.319 0-5.326 5.326-5.326 13.994 0 19.32s13.993 5.326 19.319 0c5.325-5.327 5.325-13.994 0-19.32zm-11.709 11.708a2.9 2.9 0 0 1 0-4.097 2.9 2.9 0 0 1 4.098 0 2.902 2.902 0 0 1 .001 4.098 2.901 2.901 0 0 1-4.099-.001zm57.837-40.271L241.596.363a1.242 1.242 0 0 0-1.755 0l-17.562 17.563a1.242 1.242 0 0 0-.002 1.756l3.515 3.513a1.242 1.242 0 0 0 1.756 0 2.901 2.901 0 0 1 4.097 0 2.899 2.899 0 0 1 0 4.098 1.246 1.246 0 0 0 0 1.757l8.197 8.197a1.242 1.242 0 0 0 1.756-.001l17.562-17.563c.484-.485.485-1.27.002-1.756zm-22.248 0a5.385 5.385 0 0 1 0-7.611 5.389 5.389 0 0 1 7.611 0 5.389 5.389 0 0 1 0 7.611 5.389 5.389 0 0 1-7.611 0zm1.463 10.244a3.731 3.731 0 0 1 0-5.269 3.73 3.73 0 0 1 5.27 0 3.73 3.73 0 0 1 0 5.269 3.729 3.729 0 0 1-5.27 0zM116.375 58.578l-.063.067-.104.111-.069.077a1.942 1.942 0 0 0-.085.096l-.067.078-.073.087a3.373 3.373 0 0 0-.128.162c-.022.026-.041.053-.061.079-.021.025-.041.052-.059.076a4.08 4.08 0 0 1-.108.15c-.019.026-.035.051-.052.077l-.047.068-.049.076a1.279 1.279 0 0 0-.088.141l-.039.062-.044.075c-.011.019-.022.039-.034.057l-.042.076-.029.053-.042.078c-.009.016-.018.031-.025.047-.015.027-.028.054-.042.082l-.022.041-.045.091-.07.14-.002.004-.001.002v.001a1.369 1.369 0 0 0-.031.067l-.019.042c-.013.032-.024.066-.035.1-.003.01-.004.02-.008.03-.008.026-.014.054-.02.081l-.005.03a1.003 1.003 0 0 0-.015.11l-.005.096v.016c0 .038.002.076.005.113l.001.008a.781.781 0 0 0 .014.097l.008.038c.005.022.009.044.016.065.004.015.007.03.013.044.006.021.013.04.021.061l.016.042c.014.032.027.063.043.093l.017.031.04.066.021.031a.663.663 0 0 0 .049.069l.017.021c.025.03.051.06.078.088l.007.005 7.548 7.548a1.232 1.232 0 0 0 1.974-.321c.274-.548.491-.982 1.221-1.712.73-.729 1.164-.946 1.713-1.222.629-.314 1.342-.671 2.355-1.685 1.013-1.013 1.37-1.725 1.684-2.354.275-.549.492-.983 1.222-1.713.729-.73 1.163-.947 1.713-1.221.569-.285 1.209-.606 2.077-1.417.094-.087.187-.176.277-.267 1.014-1.012 1.369-1.725 1.683-2.354.275-.549.492-.983 1.223-1.713.729-.73 1.164-.947 1.713-1.222l.007-.004c.026-.013.051-.028.075-.042l.035-.02c.019-.012.037-.026.055-.039l.048-.035.021-.019.014-.012.003-.002.058-.051.006-.006a.23.23 0 0 0 .021-.023l.015-.017c.013-.014.027-.028.039-.043l.007-.008a.243.243 0 0 0 .024-.032h.001l.038-.052v-.002l.034-.054h.001l.026-.044v-.001l.032-.063v-.001l.001-.001.017-.038.002-.001a1.33 1.33 0 0 0 .026-.067l.001-.003v-.002l.014-.038v-.001l.001-.001.018-.065v-.002l.001-.003.01-.042.001-.002v-.002l.011-.06v-.003a.934.934 0 0 0 .008-.052v-.002c.002-.018.004-.036.004-.053v-.006c.002-.018.002-.038.003-.057v-.005l-.001-.048.001-.003v-.003c-.001-.021-.001-.04-.004-.06v-.004a.387.387 0 0 0-.005-.049l-.001-.003v-.003l-.008-.057v-.002c-.003-.02-.008-.038-.012-.056l-.001-.004-.001-.004-.011-.048-.001-.001V51.1l-.021-.066-.002-.006-.001-.006a.363.363 0 0 0-.011-.03l-.001-.002v-.002l-.033-.078-.003-.005a.139.139 0 0 0-.012-.028l-.001-.001c-.012-.024-.026-.047-.04-.072l-.004-.008c-.002-.001-.003-.004-.004-.007l-.013-.02v-.002l-.001-.001c-.011-.018-.023-.034-.035-.051-.002-.001-.003-.003-.004-.006-.002-.002-.004-.003-.005-.006l-.028-.037v-.001l-.001-.002c-.008-.011-.019-.021-.028-.032l-.005-.006-.005-.005a.666.666 0 0 0-.043-.048l-.001-.002-.006-.007-7.556-7.555a1.232 1.232 0 0 0-1.423-.23c-.628.313-1.341.67-2.354 1.683-1.013 1.013-1.369 1.726-1.684 2.354-.275.549-.492.983-1.222 1.713s-1.164.947-1.713 1.222c-.629.314-1.342.67-2.355 1.684-1.013 1.013-1.37 1.725-1.684 2.354-.274.549-.491.983-1.221 1.713s-1.165.947-1.713 1.221c-.629.315-1.341.671-2.354 1.685l-.009.009a1.197 1.197 0 0 0-.179.162zm9.102-1.173c.314-.628.671-1.341 1.684-2.354 1.013-1.013 1.725-1.369 2.354-1.683.549-.275.983-.492 1.714-1.222.729-.73.946-1.164 1.221-1.713.314-.629.671-1.341 1.684-2.354.339-.339.644-.603.924-.818l1.766 1.765c-.274.182-.571.42-.947.796-.731.729-.947 1.164-1.221 1.713-.315.629-.671 1.342-1.684 2.354-1.013 1.013-1.726 1.369-2.354 1.684-.549.274-.983.492-1.713 1.222s-.947 1.164-1.222 1.713c-.314.629-.67 1.341-1.684 2.354-1.013 1.013-1.725 1.369-2.354 1.684-.549.275-.982.492-1.713 1.222a5.904 5.904 0 0 0-.795.947l-1.766-1.766c.215-.279.479-.585.818-.924 1.013-1.013 1.725-1.369 2.354-1.684.549-.275.983-.491 1.713-1.222s.946-1.164 1.221-1.714zm129.72 34.181a25.769 25.769 0 0 0-5.613-8.41 25.724 25.724 0 0 0-8.395-5.599 1.233 1.233 0 0 0-1.61.667l-9.435 22.774a1.233 1.233 0 0 0 1.611 1.611l18.488-7.658.012-.004 4.276-1.771c.628-.259.926-.979.666-1.606v-.004zm-11.009 3.227a2.054 2.054 0 1 0-3.793 1.572l-6.832 2.831 1.74-4.2a2.054 2.054 0 1 0 1.527-3.688l2.733-6.603a23.156 23.156 0 0 1 8.487 8.488l-3.862 1.6z"/><path opacity=".25" fill="maroon" d="M242.904 91.613a2.052 2.052 0 1 1-2.903-2.904 2.052 2.052 0 0 1 2.903 0 2.051 2.051 0 0 1 0 2.904zm-34.655 50.36l-17.497-17.497a1.237 1.237 0 0 0-1.749 0l-1.75 1.75a5.367 5.367 0 0 0 0 7.583l11.665 11.664a5.366 5.366 0 0 0 7.583 0l1.75-1.75a1.24 1.24 0 0 0-.002-1.75zm-11.662-23.332l17.497 17.498a1.237 1.237 0 0 0 1.749 0l1.749-1.749a5.367 5.367 0 0 0 .001-7.583l-1.458-1.458-2.624 2.625a1.238 1.238 0 0 1-1.749-1.75l2.624-2.625-1.75-1.75-2.625 2.625a1.238 1.238 0 0 1-1.749-1.75l2.625-2.625-1.751-1.75-2.624 2.625a1.239 1.239 0 0 1-1.75 0 1.239 1.239 0 0 1 .001-1.75l2.624-2.624-1.458-1.458a5.367 5.367 0 0 0-7.583 0l-1.749 1.749a1.237 1.237 0 0 0-.002 1.748l.002.002zm15.132 19.309c-.551-.274-.986-.492-1.72-1.226-.733-.732-.952-1.167-1.226-1.72-.315-.63-.674-1.345-1.688-2.361l-.002-.001c-1.017-1.018-1.731-1.375-2.364-1.69-.551-.275-.986-.493-1.719-1.226s-.951-1.168-1.227-1.72c-.314-.63-.672-1.345-1.688-2.362v-.001c-1.017-1.018-1.731-1.375-2.362-1.69-.552-.275-.988-.494-1.721-1.226l-.001-.001c-.731-.732-.95-1.167-1.226-1.718v-.001a1.238 1.238 0 0 0-2.215 1.107c.316.63.674 1.346 1.69 2.362v.001c1.017 1.017 1.731 1.373 2.362 1.689.551.276.986.493 1.719 1.225l.001.002c.733.732.95 1.168 1.226 1.72.316.63.674 1.347 1.69 2.362v.001c1.017 1.017 1.731 1.374 2.362 1.69.553.275.986.491 1.72 1.226h.001c.732.733.951 1.169 1.227 1.72.316.63.674 1.346 1.689 2.363l.001.001c1.017 1.015 1.731 1.374 2.362 1.688a1.233 1.233 0 0 0 1.658-.554 1.233 1.233 0 0 0-.549-1.66zm66.947-2.904c4.293-4.292 4.293-11.278 0-15.571l-.864-.864-15.571 15.57.865.865c4.293 4.293 11.277 4.294 15.57 0z"/><path opacity=".25" fill="maroon" d="M280.396 136.776c-3.215 3.214-7.664 4.458-11.836 3.734l6.934 6.936 15.572-15.571-6.937-6.935c.726 4.171-.518 8.622-3.733 11.836zm12.284-6.75a3.954 3.954 0 0 0-.729-4.578 3.93 3.93 0 0 0-2.699-1.152 3.932 3.932 0 0 0-3.852-3.851 3.936 3.936 0 0 0-1.151-2.699 3.952 3.952 0 0 0-4.578-.728l13.009 13.008zm-30.173-72.859c.886 2.655 2.729 5.472 5.188 7.934 2.462 2.461 5.279 4.303 7.936 5.19 2.997.998 5.51.687 7.073-.877l8.624-8.625c1.564-1.564 1.877-4.077.877-7.073-.885-2.655-2.727-5.473-5.188-7.934-2.463-2.461-5.281-4.304-7.936-5.19-2.996-.998-5.51-.687-7.074.877l-8.625 8.625c-1.564 1.564-1.874 4.076-.875 7.073zm22.438-9.315c4.346 4.345 5.859 9.321 4.312 10.868-1.548 1.546-6.523.031-10.865-4.313-4.347-4.344-5.861-9.32-4.313-10.867 1.548-1.548 6.523-.033 10.866 4.312z"/><path opacity=".25" fill="maroon" d="M284.773 54.234c-.857.857-2.942.162-4.657-1.553-1.716-1.714-2.41-3.8-1.554-4.658.856-.857 2.942-.162 4.658 1.552 1.718 1.716 2.411 3.802 1.553 4.659zm-34.974 118.75l.01-.008.043-.047a3.27 3.27 0 0 0 .06-.068l.01-.012 5.483-7.062c.453-.583.4-1.411-.12-1.933l-9.464-9.463a1.463 1.463 0 0 0-1.932-.121l-7.062 5.483-.01.009c-.024.02-.047.039-.069.061a.47.47 0 0 0-.047.042l-.009.008c-3.25 3.249-3.553 8.343-.922 11.963l-3.502 3.5-1.727-1.726a1.463 1.463 0 1 0-2.07 2.07l5.523 5.522a1.465 1.465 0 1 0 2.07-2.072l-1.726-1.726 3.499-3.5c3.619 2.633 8.715 2.328 11.962-.92zm-9.865-11.935l4.729-3.674 7.638 7.639-3.674 4.729-8.693-8.694zm26.362 47.451c-.021.023-.04.045-.062.066l-.104.11a1.652 1.652 0 0 1-.069.077c-.028.031-.057.063-.084.096l-.067.08-.072.086-.063.08-.065.08-.06.08c-.021.024-.041.05-.06.075-.021.026-.039.053-.057.078l-.054.071c-.018.026-.033.053-.052.076l-.047.069c-.019.024-.032.05-.05.075-.014.021-.027.044-.043.064-.016.025-.029.051-.044.075-.015.021-.026.041-.039.062l-.043.076-.034.058-.043.075-.029.054c-.015.026-.027.052-.043.077-.008.016-.017.031-.023.047-.016.027-.028.056-.043.082-.008.014-.016.027-.021.041l-.045.09c-.006.01-.009.021-.016.029l-.057.111-.002.004v.004l-.01.015c-.008.019-.016.034-.023.053l-.019.042c-.013.031-.022.066-.034.102s-.021.072-.029.109l-.004.03c-.004.026-.01.056-.013.084l-.002.024a1.05 1.05 0 0 0-.005.097v.017c0 .037.002.074.005.113l.001.008c.004.033.008.064.014.098l.01.037.015.065.015.045.021.06c.005.017.011.029.017.043.014.031.027.062.045.093.004.012.01.021.017.032l.038.064.021.031c.016.023.031.047.049.068l.019.021a.917.917 0 0 0 .084.092l7.549 7.549a1.234 1.234 0 0 0 1.976-.321c.272-.549.489-.981 1.221-1.713.729-.729 1.162-.946 1.712-1.223.63-.314 1.342-.671 2.354-1.684 1.014-1.014 1.369-1.727 1.684-2.354.275-.55.492-.984 1.223-1.714.729-.729 1.164-.946 1.714-1.222.569-.285 1.209-.607 2.076-1.417.091-.084.183-.171.276-.267 1.014-1.015 1.369-1.727 1.685-2.354.274-.55.491-.983 1.222-1.713.729-.729 1.164-.946 1.713-1.222.002-.004.004-.004.008-.004l.074-.043.035-.021a.544.544 0 0 0 .055-.039l.05-.035.021-.019.014-.012c.002 0 .002-.002.004-.004l.057-.051a.027.027 0 0 0 .008-.007.12.12 0 0 0 .021-.024l.016-.016c.015-.016.027-.028.039-.044l.007-.009c.008-.01.018-.021.024-.031l.001-.002.039-.053s.002 0 0-.002c.014-.017.021-.033.033-.054v-.001a.2.2 0 0 0 .027-.044h.002l.029-.063.001-.002s.002 0 .002-.002l.017-.037h.002a.449.449 0 0 0 .024-.067l.003-.003v-.002l.016-.037v-.002l.018-.064v-.004l.003-.004.009-.043.002-.001v.003a.646.646 0 0 0 .01-.061v-.004l.011-.053v-.002l.003-.056c0-.001.002-.002 0-.002.002-.001 0-.002 0-.004a.369.369 0 0 0 .004-.058l.001-.002-.001-.002V201.293c-.001-.021-.001-.04-.004-.06v-.006l-.005-.049-.001-.003v-.004c-.002-.021-.006-.036-.01-.057v-.005l-.012-.055v-.005l-.002-.003c-.003-.018-.008-.033-.011-.049l-.001-.002v-.001a5.059 5.059 0 0 0-.021-.065c0-.004-.002-.005-.004-.007v-.007a.074.074 0 0 0-.012-.029v-.005l-.035-.077c0-.002 0-.004-.002-.006-.002-.007-.006-.014-.01-.021l-.002-.006-.002-.002c-.013-.023-.025-.047-.04-.07l-.003-.008-.006-.008-.012-.02-.002-.003v-.001l-.035-.053c-.003-.001-.004-.004-.004-.006-.002-.002-.006-.004-.006-.006l-.029-.037v-.002l-.028-.033-.005-.006c-.002-.002-.004-.002-.004-.004l-.045-.051v-.001l-.008-.007-7.556-7.557a1.232 1.232 0 0 0-1.424-.23c-.628.314-1.341.672-2.354 1.686-1.013 1.012-1.369 1.725-1.684 2.354-.273.549-.491.982-1.223 1.714-.729.729-1.164.946-1.713 1.222-.629.314-1.34.672-2.354 1.686-1.015 1.013-1.369 1.725-1.685 2.354-.274.549-.492.983-1.223 1.715-.73.729-1.164.945-1.713 1.221-.629.314-1.341.672-2.354 1.685l-.01.009-.181.188zm9.102-1.172c.313-.629.67-1.342 1.684-2.354 1.014-1.013 1.727-1.369 2.354-1.685.551-.274.983-.492 1.715-1.224.729-.729.945-1.162 1.222-1.711.313-.631.67-1.342 1.685-2.355.338-.338.644-.604.924-.816l1.766 1.764c-.342.233-.658.5-.946.798-.729.729-.946 1.164-1.223 1.713-.312.629-.67 1.341-1.683 2.354-1.014 1.014-1.727 1.369-2.354 1.686-.549.273-.983.49-1.714 1.221-.73.731-.946 1.164-1.223 1.713-.313.629-.67 1.344-1.684 2.354-1.012 1.014-1.725 1.37-2.354 1.687-.549.272-.981.489-1.713 1.221a5.904 5.904 0 0 0-.795.947l-1.768-1.768c.215-.279.479-.583.816-.923 1.016-1.015 1.728-1.369 2.355-1.685.549-.275.982-.49 1.713-1.223.733-.731.949-1.165 1.223-1.714zM85.502 89.742l-.001-8.524a3.936 3.936 0 0 0-2.238 1.121 3.945 3.945 0 0 0-1.161 2.803v18.122a3.968 3.968 0 0 0 3.399 3.923l.001-17.445zm3.397 18.054a1.697 1.697 0 0 0 3.396.049l.001-27.289a1.702 1.702 0 0 0-2.899-1.148 1.689 1.689 0 0 0-.498 1.2v27.188zm9.03-1.73a3.939 3.939 0 0 0 1.163-2.803V85.142a3.97 3.97 0 0 0-3.396-3.923l-.001 25.969a3.933 3.933 0 0 0 2.234-1.122zM24.357 23.448c3.378-4.142 3.138-10.271-.722-14.13-3.859-3.858-9.988-4.099-14.13-.721a4.353 4.353 0 0 0-5.19.721 4.354 4.354 0 0 0-.624 5.358l14.585 14.585a4.351 4.351 0 0 0 5.358-.624 4.351 4.351 0 0 0 .723-5.189zm-11.939 9.329l3.664-2.198L2.375 16.872.177 20.536a1.24 1.24 0 0 0 .188 1.517l10.538 10.538a1.24 1.24 0 0 0 1.515.186zm1.213 148.434a3.546 3.546 0 0 0 5.009 0l1.071-1.072-1.345-1.343h-7.151l2.416 2.415zM27.413 168.3c-.363-2.515-1.701-5.036-3.766-7.104-2.065-2.065-4.589-3.402-7.104-3.766-2.147-.31-4.043.137-5.399 1.26l15.01 15.01c1.122-1.357 1.568-3.253 1.259-5.4zm-18.347 1.193l.001 6.267 6.265-.001-6.266-6.266zm-5.452 1.7l2.416 2.416v-7.153l-1.345-1.343-1.071 1.072a3.545 3.545 0 0 0 0 5.008zm2.129-9.318l.018.016 17.172 17.172.016.019a1.519 1.519 0 0 0 2.129-2.163L7.904 159.745a1.517 1.517 0 0 0-2.161 2.13zm2.713-71.469l-1.701-1.701a3.454 3.454 0 0 0-4.88 0 3.455 3.455 0 0 0 0 4.881l.271.271-.271.271a3.454 3.454 0 0 0 0 4.88 3.454 3.454 0 0 0 4.88 0l1.701-1.701h1.703v-6.903l-1.703.002zm14.18-5.368c-2.086 0-5.505 1.482-10.177 4.411v8.817c4.672 2.927 8.091 4.412 10.177 4.411 4.863 0 8.82-3.957 8.82-8.82s-3.957-8.819-8.82-8.819zm40.462 54.189L45.6 121.729a1.238 1.238 0 0 0-1.75 0c-3.456 3.457-4.661 8.324-3.614 12.766a1.236 1.236 0 0 0-.76 2.107l8.749 8.748a1.24 1.24 0 0 0 2.107-.76c4.441 1.047 9.31-.158 12.766-3.615a1.236 1.236 0 0 0 .001-1.747l-.001-.001zm-3.721-20.706c0-.683-.554-1.237-1.237-1.236-.955-.001-2.262 0-3.499 1.236-1.237 1.237-1.238 2.545-1.237 3.5 0 .858-.021 1.258-.513 1.75a1.238 1.238 0 1 0 1.751 1.75c1.237-1.237 1.237-2.545 1.237-3.5 0-.858.02-1.257.512-1.749.492-.492.891-.513 1.75-.513.682 0 1.236-.554 1.236-1.238zm4.082 4.083c0-.683-.554-1.237-1.238-1.237-.954-.001-2.262 0-3.499 1.237-1.237 1.236-1.238 2.544-1.237 3.499 0 .857-.021 1.258-.513 1.75a1.238 1.238 0 0 0 1.75 1.75c1.238-1.238 1.237-2.545 1.237-3.5 0-.858.021-1.257.513-1.75.492-.492.891-.512 1.75-.512.683 0 1.237-.554 1.237-1.237zm4.083 4.083c0-.684-.554-1.238-1.237-1.238-.954 0-2.263 0-3.5 1.237s-1.238 2.545-1.237 3.5c.001.858-.02 1.258-.512 1.75a1.238 1.238 0 0 0 1.75 1.75c1.238-1.238 1.237-2.546 1.238-3.5 0-.858.02-1.257.512-1.75.492-.492.892-.512 1.75-.512.682 0 1.236-.554 1.236-1.237zm74.331 8.139l-3.221-3.22 3.22-3.221a1.518 1.518 0 0 0 .001-2.146l-12.881-12.88a1.519 1.519 0 0 0-2.146 0l-17.173 17.172a1.52 1.52 0 0 0 0 2.147l12.88 12.879c.59.592 1.55.594 2.142.003.001-.001.002-.003.004-.003l1.073-1.074 3.221 3.222a1.516 1.516 0 0 0 2.145.001l.001-.001 10.732-10.733a1.518 1.518 0 0 0 .002-2.146zm-21.467-2.148a1.519 1.519 0 0 1-2.146-2.146l4.293-4.292a1.517 1.517 0 1 1 2.146 2.146l-4.293 4.292zm4.293 4.294a1.519 1.519 0 0 1-2.146-2.146l4.294-4.294a1.519 1.519 0 0 1 2.146 2.147l-4.294 4.293zm11.806-7.514l-10.732-10.732 2.146-2.146 10.732 10.732-2.146 2.146zm-6.44 15.026l-2.146-2.146 8.586-8.586 2.146 2.147-8.586 8.585zm-97.789 96.229a1.256 1.256 0 0 0-1.055-.352c-1.22.176-5.3.854-6.621 2.174a4.132 4.132 0 0 0-1.149 3.633l-2.702-.133c.61-.969.877-1.879.828-2.777-.046-.839-.367-1.551-.814-2.185l6.247-3.362a1.243 1.243 0 1 0-1.177-2.19l-3.967 2.137 2.136-3.967a1.243 1.243 0 0 0-.506-1.683 1.24 1.24 0 0 0-1.682.507l-3.363 6.246c-.634-.447-1.346-.769-2.185-.814-.898-.049-1.808.219-2.776.826l-.134-2.699a4.137 4.137 0 0 0 3.632-1.15c1.321-1.32 1.998-5.4 2.173-6.619a1.25 1.25 0 0 0-.352-1.057 1.257 1.257 0 0 0-1.055-.352c-1.22.176-5.3.854-6.621 2.174a4.145 4.145 0 0 0-.34 5.467l.31 6.285a26.1 26.1 0 0 0-2.027 2.451l-1.296-1.295a1.243 1.243 0 0 0-1.796 1.715l.04.041 1.644 1.645a23.875 23.875 0 0 0-.856 1.521c-.459.895-.8 1.713-1.024 2.449l-.735-.732a1.243 1.243 0 0 0-1.757 1.756l5.855 5.855a1.243 1.243 0 1 0 1.758-1.758l-.734-.734c.737-.223 1.555-.565 2.45-1.023a26.089 26.089 0 0 0 1.522-.855l1.639 1.64a1.242 1.242 0 1 0 1.756-1.756l-1.292-1.292a26.139 26.139 0 0 0 2.452-2.027l6.286.309a4.143 4.143 0 0 0 5.467-.338c1.321-1.322 1.998-5.401 2.172-6.623a1.24 1.24 0 0 0-.351-1.058zm30.825-44.289c-5.327-5.326-13.993-5.326-19.32 0-5.326 5.325-5.326 13.993 0 19.318 5.327 5.326 13.993 5.326 19.32 0 5.327-5.325 5.327-13.993 0-19.318zm-11.709 11.708a2.903 2.903 0 0 1 0-4.098 2.902 2.902 0 0 1 4.099 0 2.902 2.902 0 0 1 0 4.099 2.903 2.903 0 0 1-4.099-.001zm57.836-40.273l-17.564-17.562a1.242 1.242 0 0 0-1.756-.001l-17.563 17.562a1.24 1.24 0 0 0 0 1.756l3.512 3.513a1.243 1.243 0 0 0 1.757 0 2.9 2.9 0 0 1 4.098 0 2.904 2.904 0 0 1 0 4.099 1.242 1.242 0 0 0 0 1.756l8.196 8.195c.485.484 1.27.484 1.755 0l17.563-17.562c.233-.233.365-.549.364-.879a1.235 1.235 0 0 0-.362-.877zm-22.248 0a5.387 5.387 0 0 1 0-7.61 5.387 5.387 0 0 1 7.611 0 5.386 5.386 0 0 1 0 7.61 5.389 5.389 0 0 1-7.611 0zm1.465 10.245a3.725 3.725 0 0 1 .096-5.268 3.724 3.724 0 0 1 5.173 0 3.727 3.727 0 0 1-5.269 5.268zM66.392 58.954l-4.098-4.099 2.342-2.341 2.928 2.926a1.241 1.241 0 0 0 1.755-1.755l-3.805-3.806a1.24 1.24 0 0 0-1.756.001l-3.22 3.219-1.767-1.767c2.133-2.437 2.041-6.156-.282-8.479a6.214 6.214 0 0 0-8.782.001 6.215 6.215 0 0 0 .001 8.781 6.197 6.197 0 0 0 1.633 1.171l-9.3 10.597a1.242 1.242 0 0 0 .056 1.698l8.197 8.196a1.242 1.242 0 0 0 1.697.055l14.343-12.587a1.24 1.24 0 0 0 .058-1.811zm-9.367-2.342l-3.047-3.046.504-.575.006-.007 1.132-1.289 3.16 3.16-1.755 1.757zm4.802 4.802l-3.046-3.045 1.757-1.756 3.16 3.16-1.871 1.641zM235.41 239.678v-8.522a3.926 3.926 0 0 0-2.237 1.12 3.948 3.948 0 0 0-1.161 2.804v18.122a3.967 3.967 0 0 0 3.398 3.923v-17.447zm3.398 18.054a1.7 1.7 0 0 0 3.396.05l.002-27.289a1.7 1.7 0 0 0-3.397.053v27.186zm9.031-1.73A3.937 3.937 0 0 0 249 253.2v-18.123a3.972 3.972 0 0 0-3.396-3.923v25.969a3.937 3.937 0 0 0 2.235-1.121zm-73.56-82.632c3.377-4.142 3.137-10.271-.723-14.13-3.857-3.857-9.986-4.1-14.129-.723a4.353 4.353 0 0 0-5.189.723 4.353 4.353 0 0 0-.624 5.357l14.586 14.586a4.349 4.349 0 0 0 5.356-.625 4.35 4.35 0 0 0 .723-5.188zm-11.938 9.328l3.663-2.197-13.707-13.707-2.198 3.662a1.245 1.245 0 0 0 .187 1.519l10.539 10.537a1.24 1.24 0 0 0 1.516.186zm-57.076 58.822a25.792 25.792 0 0 0-14.008-14.01 1.233 1.233 0 0 0-1.61.668l-9.434 22.775a1.232 1.232 0 0 0 1.612 1.611l18.488-7.658.012-.006 4.276-1.771c.626-.261.924-.981.664-1.609zm-11.011 3.226c-.1-.212-.236-.41-.411-.584a2.052 2.052 0 0 0-3.382 2.156l-6.832 2.83 1.739-4.2c.804.59 1.939.521 2.666-.204a2.057 2.057 0 0 0-1.138-3.482l2.734-6.604a23.15 23.15 0 0 1 8.487 8.486l-3.863 1.602z"/><path opacity=".25" fill="maroon" d="M92.972 241.547a2.054 2.054 0 1 1-2.906-2.906 2.055 2.055 0 0 1 2.906 2.906zm-34.657 50.359l-17.497-17.498a1.243 1.243 0 0 0-1.75 0l-1.75 1.751a5.367 5.367 0 0 0 .001 7.582l11.665 11.664a5.366 5.366 0 0 0 7.582.001l1.75-1.75a1.236 1.236 0 0 0-.001-1.75zm-11.661-23.332l17.498 17.496a1.237 1.237 0 0 0 1.75 0l1.749-1.748a5.37 5.37 0 0 0 0-7.584l-1.457-1.457-2.625 2.625a1.238 1.238 0 0 1-1.75-1.75l2.625-2.625-1.75-1.749-2.625 2.624a1.237 1.237 0 1 1-1.75-1.749l2.625-2.624-1.75-1.751-2.625 2.624a1.238 1.238 0 0 1-1.75-1.748l2.625-2.625-1.459-1.458a5.367 5.367 0 0 0-7.583 0l-1.75 1.75a1.238 1.238 0 0 0 .002 1.749zm15.133 19.311c-.552-.275-.987-.492-1.72-1.227l-.001-.002c-.732-.732-.951-1.166-1.226-1.719-.315-.631-.673-1.347-1.689-2.361v-.002c-1.018-1.018-1.732-1.374-2.364-1.69-.551-.274-.987-.493-1.719-1.226-.733-.732-.951-1.168-1.227-1.721-.315-.631-.673-1.345-1.688-2.36l-.001-.002c-1.017-1.017-1.732-1.373-2.363-1.689-.551-.274-.987-.493-1.72-1.227s-.95-1.167-1.225-1.72a1.237 1.237 0 1 0-2.213 1.106c.315.631.672 1.347 1.688 2.361l.001.002c1.017 1.016 1.732 1.373 2.362 1.688.551.275.986.493 1.719 1.226l.001.002c.733.731.951 1.167 1.226 1.719.316.632.673 1.347 1.69 2.364 1.017 1.016 1.731 1.373 2.362 1.689.551.275.987.492 1.719 1.226h.001c.733.731.951 1.17 1.226 1.721.316.631.674 1.347 1.689 2.362l.001.001c1.017 1.017 1.732 1.374 2.362 1.688a1.236 1.236 0 0 0 1.658-.551l.002-.004a1.231 1.231 0 0 0-.551-1.654zm66.946-2.906c4.293-4.291 4.293-11.276 0-15.569l-.865-.864-15.571 15.57.865.863c4.293 4.294 11.278 4.294 15.571 0z"/><path opacity=".25" fill="maroon" d="M130.464 286.709c-3.215 3.216-7.665 4.46-11.837 3.736l6.935 6.934 15.571-15.57-6.934-6.936c.723 4.172-.521 8.621-3.735 11.836zm12.281-6.75a3.952 3.952 0 0 0-.728-4.577 3.926 3.926 0 0 0-2.7-1.151 3.931 3.931 0 0 0-3.851-3.851 3.927 3.927 0 0 0-1.152-2.698 3.952 3.952 0 0 0-4.578-.729l13.009 13.006zm15.632-39.631l-1.701-1.7a3.455 3.455 0 0 0-4.881 0 3.457 3.457 0 0 0 0 4.881l.271.271-.271.271a3.456 3.456 0 0 0 .001 4.881 3.454 3.454 0 0 0 4.88 0l1.701-1.701h1.703v-6.901l-1.703-.002zm14.182-5.368c-2.086 0-5.507 1.483-10.178 4.411v8.816c4.672 2.93 8.09 4.412 10.178 4.412 4.863 0 8.82-3.957 8.82-8.82-.001-4.863-3.959-8.819-8.82-8.819zm40.461 54.188l-17.496-17.498a1.24 1.24 0 0 0-1.75 0c-3.457 3.457-4.662 8.324-3.614 12.766a1.237 1.237 0 0 0-.761 2.108l8.748 8.75a1.24 1.24 0 0 0 1.752-.004 1.24 1.24 0 0 0 .354-.759c4.44 1.048 9.312-.155 12.767-3.612a1.24 1.24 0 0 0 0-1.751zm-3.721-20.705c0-.685-.554-1.237-1.236-1.236-.955-.001-2.263 0-3.5 1.236-1.238 1.236-1.238 2.545-1.237 3.498 0 .857-.021 1.26-.513 1.752a1.236 1.236 0 0 0 1.75 1.748c1.237-1.236 1.236-2.545 1.236-3.5 0-.857.021-1.258.512-1.75.492-.49.894-.512 1.75-.512a1.236 1.236 0 0 0 1.238-1.232v-.004zm4.083 4.082c0-.684-.554-1.237-1.237-1.237-.955 0-2.263 0-3.5 1.237-1.236 1.235-1.237 2.545-1.236 3.5 0 .856-.021 1.258-.512 1.748a1.237 1.237 0 1 0 1.748 1.75c1.238-1.236 1.237-2.543 1.237-3.498 0-.859.021-1.258.515-1.75.492-.492.891-.512 1.748-.512a1.237 1.237 0 0 0 1.237-1.238zm4.083 4.082c0-.683-.554-1.236-1.238-1.236-.955-.001-2.262 0-3.5 1.236-1.238 1.238-1.236 2.545-1.236 3.5.001.856-.021 1.258-.514 1.75a1.24 1.24 0 0 0 0 1.748 1.241 1.241 0 0 0 1.752.002c1.236-1.237 1.236-2.545 1.236-3.5 0-.857.021-1.258.514-1.75s.891-.512 1.75-.512c.682 0 1.236-.553 1.236-1.236v-.002zm-104.891-69.505c.885 2.654 2.728 5.474 5.189 7.935 2.461 2.461 5.28 4.303 7.935 5.188 2.997.998 5.509.688 7.073-.877l8.625-8.625c1.564-1.563 1.876-4.076.877-7.072-.885-2.656-2.729-5.473-5.189-7.936-2.462-2.461-5.279-4.303-7.935-5.189-2.997-.998-5.509-.687-7.073.879l-8.625 8.625c-1.565 1.563-1.876 4.074-.877 7.072zm22.439-9.317c4.344 4.344 5.859 9.32 4.312 10.867-1.547 1.547-6.522.031-10.867-4.312-4.344-4.344-5.86-9.32-4.313-10.867s6.523-.034 10.868 4.312z"/><path opacity=".25" fill="maroon" d="M134.841 204.168c-.858.857-2.943.162-4.658-1.553-1.715-1.715-2.41-3.801-1.553-4.658.858-.857 2.944-.162 4.658 1.553 1.715 1.715 2.41 3.801 1.553 4.658zm156.954 80.579l-3.22-3.22 3.22-3.221a1.519 1.519 0 0 0 0-2.146l-12.88-12.881a1.516 1.516 0 0 0-2.146.002l-17.174 17.173a1.516 1.516 0 0 0-.003 2.143l.003.003 12.879 12.881a1.516 1.516 0 0 0 2.146.001l.001-.001 1.072-1.073 3.222 3.222a1.518 1.518 0 0 0 2.146-.001v-.001l10.733-10.73a1.523 1.523 0 0 0 .001-2.151zm-21.467-2.147a1.517 1.517 0 1 1-2.146-2.146l4.295-4.293a1.517 1.517 0 1 1 2.146 2.146l-4.295 4.293zm4.293 4.295a1.518 1.518 0 0 1-2.144-2.147l4.293-4.293a1.517 1.517 0 1 1 2.146 2.146l-4.295 4.294zm11.807-7.515l-10.732-10.731 2.146-2.146 10.733 10.732-2.147 2.145zm-6.442 15.027l-2.146-2.147 8.587-8.586 2.146 2.146-8.587 8.587zm-63.672-85.53l-4.099-4.1 2.341-2.342 2.928 2.928a1.242 1.242 0 0 0 1.797-1.717l-.04-.039-3.806-3.807a1.243 1.243 0 0 0-1.756 0l-3.221 3.221-1.768-1.769a6.219 6.219 0 0 0-.28-8.478 6.215 6.215 0 0 0-8.782 0 6.214 6.214 0 0 0 0 8.781 6.28 6.28 0 0 0 1.633 1.172l-9.3 10.597a1.244 1.244 0 0 0 .056 1.698l8.197 8.194a1.241 1.241 0 0 0 1.698.056l14.343-12.586c.258-.227.41-.551.422-.894s-.12-.673-.363-.915zm-9.367-2.343l-3.047-3.046.504-.574c.002-.002.004-.006.007-.007l1.131-1.289 3.161 3.159-1.756 1.757zm4.801 4.803l-3.044-3.046 1.755-1.756 3.161 3.16-1.872 1.642z"/></svg>