<svg version="1.2" baseProfile="tiny" xmlns="http://www.w3.org/2000/svg" width="45" height="30" viewBox="0 0 45 30"><path fill="#FFFFFF" d="M42 6a3 3 0 0 1-3 3H6a3 3 0 1 1 0-6h33a3 3 0 0 1 3 3z"/><path d="M39 3a3 3 0 1 1 0 6H6a3 3 0 1 1 0-6h33m0-3H6C2.691 0 0 2.691 0 6s2.691 6 6 6h33c3.309 0 6-2.691 6-6s-2.691-6-6-6z"/><path d="M39 12a3 3 0 1 1 0 6H6a3 3 0 0 1 0-6h33m0-3H6c-3.309 0-6 2.691-6 6s2.691 6 6 6h33c3.309 0 6-2.691 6-6s-2.691-6-6-6z"/><path fill="#FFFFFF" d="M42 15zM5.396 12.061zM3 15a3 3 0 0 0 3 3h33a3 3 0 0 0 3-3H3z"/><path fill="#FFFFFF" d="M39.604 12.061A3.003 3.003 0 0 0 39 12H6a3.001 3.001 0 0 0-3 3h39a3.001 3.001 0 0 0-2.396-2.939z"/><path fill="#FFFFFF" d="M42 24a3 3 0 0 1-3 3H6a3 3 0 1 1 0-6h33a3 3 0 0 1 3 3z"/><path d="M39 21a3 3 0 0 1 0 6H6a3 3 0 0 1 0-6h33m0-3H6c-3.309 0-6 2.691-6 6s2.691 6 6 6h33c3.309 0 6-2.691 6-6s-2.691-6-6-6z"/><path fill="#FFFFFF" d="M39.604 21.061A3.003 3.003 0 0 0 39 21H6a3.001 3.001 0 0 0-3 3h39a3.001 3.001 0 0 0-2.396-2.939z"/><path fill="#FFFFFF" d="M3 6a3 3 0 0 0 3 3h33a3 3 0 0 0 3-3H3z"/></svg>