<svg xmlns="http://www.w3.org/2000/svg" width="40" height="40" viewBox="0 0 40 40"><path fill="#FFF" d="M0 0h40v40H0z"/><path fill="#4285F4" d="M28.641 20.205c0-.638-.059-1.252-.164-1.841H20v3.482h4.844a4.141 4.141 0 0 1-1.796 2.716v2.258h2.909c1.701-1.567 2.684-3.875 2.684-6.615z"/><path fill="#34A853" d="M20 29c2.43 0 4.467-.806 5.957-2.181l-2.909-2.257c-.806.54-1.837.858-3.048.858-2.344 0-4.328-1.582-5.036-3.71h-3.007v2.332A8.998 8.998 0 0 0 20 29z"/><path fill="#FBBC05" d="M14.964 21.71a5.406 5.406 0 0 1-.282-1.71c0-.593.103-1.17.282-1.71v-2.332h-3.007a9.005 9.005 0 0 0 0 8.084l3.007-2.332z"/><path fill="#EA4335" d="M20 14.58c1.321 0 2.508.454 3.44 1.346l2.581-2.581C24.463 11.892 22.426 11 20 11a8.998 8.998 0 0 0-8.043 4.958l3.007 2.332c.708-2.127 2.692-3.71 5.036-3.71z"/><path fill="none" d="M11 11h18v18H11V11z"/></svg>